<svg width="541" height="541" viewBox="0 0 541 541" fill="none" xmlns="http://www.w3.org/2000/svg">
<path d="M83.1367 109.891L117.241 492.365L270.268 534.842L423.722 492.31L457.864 109.891H83.1367ZM375.657 323.281L365.725 415.809L365.763 423.734L270.5 450.34V450.344L270.424 450.408L174.401 424.098L167.905 350.805H214.993L218.332 387.855L270.517 401.781L270.5 401.845V401.709L322.884 386.938L328.413 325.445H218.915L217.977 315.492L215.838 291.624L214.718 278.953H332.58L336.866 232.461H157.351L156.408 221.518L154.27 196.032L153.15 181.742H388.134L387.005 195.834L375.657 323.281ZM376.164 60.7526L345.949 25.3594H376.164V4.22656H308.539V22.6671L344 54.9453H308.539V76.0781H376.164V60.7526ZM295.86 60.7526L267.089 25.3594H295.86V4.22656H232.461V22.6671L265.145 54.9453H232.461V76.0781H295.86V60.7526ZM219.781 54.9453H185.969V25.3594H219.781V4.22656H160.61V76.0781H219.781V54.9453Z" fill="#626262"/>
</svg>
