<svg width="698" height="542" viewBox="0 0 698 542" fill="none" xmlns="http://www.w3.org/2000/svg">
<path d="M0 69.6773C7.65958 69.6703 15.4278 71.5548 22.5986 75.532L349 256.569L675.401 75.532C682.572 71.5548 690.34 69.6704 698 69.6773C698 36.8327 697.999 20.4096 687.778 10.2052C677.556 0 661.104 0 628.2 0H69.8C36.896 0 20.4439 0 10.222 10.2052C0.000881312 20.4096 0 36.8327 0 69.6773Z" fill="white"/>
<path d="M698 169.288L377.248 347.192C359.68 356.935 338.319 356.935 320.752 347.192L342.368 308.346L342.848 307.483L0 116.268V116.388L342.368 308.346L320.752 347.192L0 169.288V472.314C0 505.164 0 521.59 10.222 531.795C20.4439 542 36.896 542 69.8 542H628.2C661.104 542 677.556 542 687.778 531.795C698 521.59 698 505.164 698 472.314V169.288Z" fill="white"/>
</svg>
