<svg width="541" height="542" viewBox="0 0 541 542" fill="none" xmlns="http://www.w3.org/2000/svg">
<path d="M79.3199 350.119C70.685 343.319 61.4669 336.798 55.1735 327.605C41.9232 311.396 31.7245 292.638 24.7507 272.922C20.5326 260.101 19.0913 246.352 13.656 234.03C7.97548 225.078 14.6323 215.293 24.421 212.447C28.7744 211.609 36.4372 207.489 27.1894 210.431C18.8969 216.529 18.0981 204.901 26.6019 204.16C32.4008 203.394 34.5394 198.635 32.5529 194.354C26.323 190.28 47.6587 185.813 36.9232 179.736C25.744 167.647 52.5615 165.323 45.9469 179.051C44.362 189.603 64.6917 177.111 59.9707 189.302C64.7678 195.158 77.9251 190.636 77.5954 198.846C84.5777 199.329 86.9784 205.21 93.5296 205.664C100.326 208.742 112.638 211.16 114.95 218.832C108.213 224.172 92.6082 207.789 91.8558 222.584C93.893 244.446 93.369 266.96 101.357 287.777C105.131 300.387 114.286 310.303 122.553 320.127C130.465 329.743 141.18 336.51 152.101 342.205C161.679 346.732 172.004 349.73 182.448 351.618C186.679 348.375 194.16 336.315 200.762 341.401C201.079 347.117 187.655 353.35 200.132 352.723C207.461 350.5 212.541 358.397 218.577 351.271C224.135 357.868 241.683 347.062 237.727 360.544C232.372 364 224.574 361.904 219.219 366.671C210.386 362.247 203.357 370.622 193.572 369.572C182.714 371.511 171.662 372.303 160.652 372.316C142.587 370.889 124.143 370.283 106.962 363.987C97.2701 361.167 87.8279 355.637 79.3199 350.119V350.119ZM94.5693 356.746C104.02 360.836 113.263 365.151 123.623 366.455C140.06 368.742 157.034 372.269 173.53 369.06C166.062 365.681 158.344 370.364 150.905 366.642C141.987 368.568 132.414 366.155 123.344 364.965C113.035 360.366 101.907 357.199 92.2489 351.224C80.1821 346.808 98.4873 356.89 101.75 357.707C109.29 361.997 93.4577 355.505 91.2219 353.727C84.9031 350.174 84.0959 350.915 90.5963 354.523C91.9066 355.281 93.1999 356.094 94.5693 356.746V356.746ZM76.581 344.009C85.7442 347.413 76.543 337.556 72.3503 338.128C70.4906 334.892 65.2412 332.851 68.9436 331.12C62.291 333.436 61.9698 322.316 58.8464 323.904C51.8007 321.677 56.1076 313.784 47.7136 308.94C46.9486 303.833 39.3831 299.408 36.9697 291.706C35.9046 287.76 28.4151 276.441 33.0136 286.972C36.9274 297.118 43.8125 305.811 49.5522 314.487C53.9985 322.744 59.2564 331.386 67.3587 336.54C70.089 339.165 72.7264 343.188 76.581 344.009V344.009ZM50.1988 314.982C50.5116 313.598 51.8726 317.98 50.1988 314.982V314.982ZM87.5574 348.087C89.5819 347.168 84.6369 346.935 87.5574 348.087V348.087ZM92.5279 349.899C92.0165 347.388 90.254 351.305 92.5279 349.899V349.899ZM98.7536 352.495C101.712 349.67 94.1847 350.712 98.7536 352.495V352.495ZM109.421 358.453C111.222 355.793 103.656 357.453 109.421 358.453V358.453ZM88.9353 344.149C93.5338 341.164 82.9885 344.111 88.9353 344.149V344.149ZM93.6014 346.482C93.4704 344.907 91.9404 347.185 93.6014 346.482V346.482ZM116.936 361.074C120.689 363.449 138.847 366.269 127.477 362.043C125.571 362.45 106.395 356.615 116.936 361.074ZM79.8989 332.166C79.5312 330.59 74.0662 330.421 79.8989 332.166V332.166ZM90.7527 338.513C93.5845 336.54 84.8862 336.988 90.7527 338.513V338.513ZM99.8948 344.128C103.952 342.591 93.314 342.586 99.8948 344.128V344.128ZM75.4695 327.343C79.8735 330.73 93.2295 327.783 82.2108 325.327C77.1981 322.651 65.9047 320.822 73.6055 326.94L75.4695 327.343V327.343ZM106.082 346.063C107.921 342.934 98.3901 344.276 106.082 346.063V346.063ZM96.7798 338.657C107.541 341.71 87.7307 331.835 94.1255 337.535L95.5414 338.174L96.7798 338.657ZM115.436 349.454C125.626 349.556 106.226 348.049 115.436 349.454V349.454ZM71.5472 321.436C71.1499 319.534 69.0366 321.592 71.5472 321.436V321.436ZM132.672 359.147C132.942 355.717 129.35 361.705 132.672 359.147V359.147ZM88.948 332.11C88.3267 330.298 85.7611 332.03 88.948 332.11V332.11ZM72.5193 320.246C78.3689 319.886 64.5015 317.667 72.5193 320.246V320.246ZM53.0518 307.64C52.3206 304.824 46.6866 302.588 53.0518 307.64V307.64ZM104.151 340.13C103.082 338.902 103.644 340.397 104.151 340.13V340.13ZM135.952 359.681C135.854 357.809 134.219 360.388 135.952 359.681V359.681ZM101.336 337.217C101.911 334.799 96.3444 336.48 101.336 337.217V337.217ZM77.6419 322.172C81.9953 321.707 70.6639 319.221 77.6419 322.172V322.172ZM117.722 347.117C124.506 344.428 111.108 345.809 117.722 347.117V347.117ZM96.8728 332.945C104.692 333.952 87.5701 327.614 95.1526 332.373L96.8728 332.945ZM124.05 349.687C131.353 345.317 128.944 359.926 136.438 350.92C143.826 345.512 130.056 357.601 139.16 351.885C145.749 347.473 155.478 353.977 161.624 356.098C166.04 355.882 170.339 359.926 174.874 357.462C183.598 355.107 157.811 353.973 164.57 349.802C156.59 352.126 150.698 347.028 146.767 341.905C137.811 339.834 127.469 335.244 122.993 327.304C121.167 324.328 125.622 327.732 121.416 322.858C116.023 318.048 113.331 312.586 109.709 306.747C105.385 304.439 104.874 297.634 104.438 306.518C104.472 300.912 99.2143 297.135 97.9252 298.697C97.9041 293.294 103.559 296.004 99.5989 292.007C98.7494 286.405 95.9429 280.574 95.1018 274.252C93.7958 271.199 94.9201 264.674 90.6301 271.572C89.0705 278.863 90.1145 262.616 92.5448 267.968C95.7274 262.497 91.3994 263.145 91.2219 263.899C93.2971 259.288 92.5363 252.746 90.6766 255.24C91.7798 250.349 92.4222 237.239 89.024 239.568C91.0866 234.453 92.9378 216.161 83.9818 223.135C80.3554 223.19 74.0705 224.447 71.1076 225.929C80.4103 231.07 70.1693 227.788 66.3739 226.967C65.8836 231.73 62.1304 229.677 57.4389 229.719C64.9284 230.642 53.7914 237.396 49.5015 234.771C43.9182 237.438 54.3155 244.116 49.6113 246.178C50.1904 249.282 41.061 245.052 41.7753 252.233C36.3568 249.942 41.0357 260.753 43.7449 257.094C52.9588 259.597 50.2284 265.288 50.4609 270.695C48.9605 273.85 43.0475 263.285 49.1422 263.776C44.3324 255.947 43.8252 260.948 39.8226 264.585C38.897 264.843 50.0171 269.759 43.039 272.186C49.176 273.138 49.3578 278.516 50.613 281.925C54.2986 285.778 53.5421 277.673 57.9588 282.306C55.1608 278.173 43.1532 270.678 52.8193 273.083C52.7686 268.934 51.0695 265.584 54.0366 265.665C56.974 260.346 50.9596 278.791 57.5742 272.029C59.4085 271.224 59.8608 266.702 63.1533 272.457C67.9293 277.169 64.8819 280.582 58.1363 276.255C59.3409 280.366 67.1558 281.823 65.685 288.234C67.2403 293.878 69.4212 291.799 71.319 291.473C72.8067 296.952 73.6563 292.926 73.7239 290.321C80.5371 291.782 78.9395 295.818 81.0781 298.642C85.778 300.759 74.3536 284.245 82.4179 293.675C90.9006 301.348 85.6005 304.545 77.9885 303.321C82.8068 302.927 84.3579 309.846 90.3892 309.605C95.888 312.222 99.6116 322.283 90.1314 318.095C86.8474 315.122 75.2116 311.464 84.7214 317.112C93.4915 321.182 100.461 323.612 108.923 328.727C114.975 333.051 117.591 338.009 119.886 339.004C114.798 341.426 104.552 337.052 112.16 335.714C107.41 334.854 102.071 332.441 106.615 338.369C110.487 341.604 120.313 341.269 122.08 341.629C120.584 344.919 118.022 345.186 122.135 345.44C117.558 347.9 123.627 348.286 124.05 349.687V349.687ZM114.654 323.108C111.856 320.178 111.129 314.699 114.155 319.462C115.706 320.089 119.121 328.422 114.654 323.108ZM145.25 342.574C146.996 342.459 145.305 343.903 145.25 342.574V342.574ZM110.241 315.918C110.131 311.493 111.252 319.335 110.241 315.918V315.918ZM107.202 311.828C103.682 305.023 111.636 313.75 107.202 311.828V311.828ZM70.3469 286.345C72.4136 285.791 71.3655 289.877 70.3469 286.345V286.345ZM99.6792 302.267C100.947 297.494 101.171 306.268 99.6792 302.267V302.267ZM78.9564 287.832C77.4982 285.202 82.0122 290.304 78.9564 287.832V287.832ZM96.7375 293.544C93.407 286.066 99.1044 289.458 97.4772 294.768L96.7375 293.544ZM66.0696 273.054C64.5818 270.602 62.1177 263.408 62.9166 261.206C63.6266 264.788 70.5075 276.606 66.2851 266.101C61.6232 257.298 71.86 268.951 72.9124 271.157C73.4069 273.342 70.0341 270.56 72.3164 275.683C68.1575 269.852 69.865 278.906 66.0696 273.054V273.054ZM56.5979 266.507C56.9867 260.804 58.7619 270.416 56.5979 266.507V266.507ZM60.8582 267.985C62.8912 263.679 64.3029 273.985 60.8582 267.985V267.985ZM50.6004 260.033C47.0754 256.514 44.5226 253.283 50.7737 257.856C53.1743 257.945 45.4186 250.484 51.3485 255.481C57.5826 256.624 54.4254 265.724 50.6004 260.033ZM55.9892 259.893C58.0391 257.856 57.0755 261.896 55.9892 259.893V259.893ZM59.3071 260.956C56.1963 255.125 63.0772 263.408 59.3071 260.956V260.956ZM52.7179 254.651C42.4642 245.501 65.6047 259.427 54.3916 256.345L52.7179 254.651ZM82.1094 271.754C77.6673 269.09 80.9259 252.987 82.4475 263.996C86.7586 262.599 82.2066 269.687 85.423 269.62C84.9158 274.095 83.4746 275.696 82.1094 271.754ZM92.9801 278.198C93.4154 273.342 93.893 281.51 92.9801 278.198V278.198ZM91.0908 276.318C91.5769 274.256 91.1373 278.766 91.0908 276.318V276.318ZM54.7255 251.645C48.1321 242.541 73.876 260.863 58.9478 253.957C57.3882 253.546 55.5074 253.393 54.7255 251.645ZM75.6639 262.76C75.0383 255.091 77.0502 264.03 75.6639 262.76V262.76ZM91.5515 272.977C92.7815 268.612 91.6487 275.865 91.5515 272.977V272.977ZM55.7399 248.168C59.6579 247.33 71.9656 255.053 60.6638 250.374C59.4085 248.981 56.7247 249.612 55.7399 248.168V248.168ZM89.3706 264.962C89.7891 257.115 91.7121 260.283 89.3875 266.084L89.3706 264.962ZM58.652 245.437C60.2454 243.091 54.4127 234.838 59.4931 242.481C61.6866 244.226 65.8413 245.403 62.1727 246.136C67.9462 251.242 60.7695 247.516 58.652 245.437ZM87.7054 262.514C88.8085 253.58 88.6817 267.744 87.7054 262.514V262.514ZM55.313 237.184C56.5387 236.663 55.9639 238.814 55.313 237.184V237.184ZM62.8997 241.702C64.8481 237.599 66.4922 246.275 62.8997 241.702V241.702ZM84.2692 253.618C84.2565 252.038 84.6791 255.909 84.2692 253.618V253.618ZM83.035 250.87C80.0722 243.54 85.7949 254.753 83.035 250.87V250.87ZM81.2134 246.06C80.7188 243.036 82.9082 249.866 81.2134 246.06V246.06ZM84.1846 241.232C82.1432 237.637 86.7502 225.396 87.27 232.992C85.1187 238.903 86.6529 242.219 88.1449 234.284C90.9133 228.034 87.5447 246.606 84.1846 241.232ZM87.2278 223.02C88.1153 221.932 87.4264 224.337 87.2278 223.02V223.02ZM82.139 323.481C80.9302 322.422 82.2911 324.146 82.139 323.481V323.481ZM92.6208 328.787C98.4535 330.285 98.4239 327.876 93.1534 327.16C90.3216 324.518 81.374 321.715 89.3833 326.83C89.9074 328.181 91.5811 328.147 92.6208 328.787V328.787ZM71.9234 315.012C75.1313 317.417 84.0198 321.808 76.5007 315.927C79.0367 312.98 71.6486 311.404 74.0958 309.427C67.8574 305.608 69.1719 305.951 73.5464 306.069C66.0527 302.707 74.6284 302.965 74.2268 301.238C71.3359 300.666 59.8692 296.131 66.6148 301.61C59.7593 298.113 64.9791 302.914 62.9081 302.406C55.892 300.497 69.1507 307.759 61.7965 305.955C65.816 309.143 72.6208 314.14 63.4914 309.33C62.291 311.066 70.0214 313.691 71.9234 315.012V315.012ZM82.8829 321.321C96.2092 325.615 76.3444 316.062 82.8829 321.321V321.321ZM139.003 355.387C139.176 352.736 137.186 357.644 139.003 355.387V355.387ZM144.772 357.813C147.849 354.836 144.899 362.573 149.865 357.085C149.92 353.155 149.717 350.831 144.16 355.603C142.621 356.462 141.941 360.07 144.772 357.813V357.813ZM53.2082 300.2C52.2656 296.491 46.5851 296.499 53.2082 300.2V300.2ZM59.362 304.248C57.0755 300.45 51.2048 300.806 59.362 304.248V304.248ZM94.4087 325.42C97.8322 328.469 110.123 327.656 98.5634 325.797C96.8559 323.261 87.6969 323.862 94.4087 325.42ZM142.575 355.226C147.841 350.797 137.473 357.195 142.575 355.226V355.226ZM153.53 362.763C153.564 361.34 151.26 363.381 153.53 362.763V362.763ZM153.547 360.773C159.375 354.582 147.9 361.137 153.547 360.773V360.773ZM38.0559 287.497C33.0855 280.396 34.9663 277.203 30.1776 271.402C29.2647 266.965 21.9527 256.9 26.3948 267.562C30.4608 273.799 31.6654 283.453 38.0559 287.497ZM151.717 358.808C162.448 351.864 147.313 355.776 151.717 358.808V358.808ZM159.904 362.018C165.28 357.394 156.505 361.057 159.904 362.018V362.018ZM51.3865 292.35C52.9207 290.063 47.4135 292.053 51.3865 292.35V292.35ZM158.196 359.824C163.399 356.471 156.996 356.983 157.253 360.129L158.196 359.824ZM87.6081 315.253C87.4306 312.984 84.8609 315.444 87.6081 315.253V315.253ZM91.97 317.764C90.5794 314.957 89.8398 318.209 91.97 317.764V317.764ZM166.539 362.094C173.204 357.275 162.503 361.175 165.144 363.009L166.539 362.094ZM163.986 360.862C169.417 356.301 158.259 362.877 163.986 360.862V360.862ZM177.03 369.559C180.677 367.112 172.596 368.767 177.03 369.559V369.559ZM54.7255 290.698C59.6072 291.795 74.248 302.754 65.6131 291.46C61.1879 290.148 63.8422 279.316 59.3282 281.23C62.3587 286.303 61.8177 288.454 55.4609 285.261C47.4727 281.349 50.9681 287.196 52.5361 288.806C50.4059 289.288 55.351 290.664 54.7255 290.698V290.698ZM32.4726 273.092C33.3475 269.463 24.4168 253.156 28.2545 264.915C29.6366 267.38 29.4971 272.046 32.4726 273.092ZM73.3224 298.324C70.7991 296.216 73.1998 298.02 73.3224 298.324V298.324ZM79.5143 299.768C79.5143 295.932 72.6672 298.206 79.5143 299.768V299.768ZM133.2 333.669C132.173 331.052 129.155 333.609 133.2 333.669V333.669ZM135.778 335.553C135.394 334.084 134.291 335.841 135.778 335.553V335.553ZM157.055 348.984C159.1 347.477 154.502 348.79 157.055 348.984V348.984ZM43.5843 275.933C49.4381 273.663 37.3078 274.316 43.5843 275.933V275.933ZM128.471 329.506C128.407 325.717 124.738 330.455 128.471 329.506V329.506ZM41.2723 270.534C45.0298 269.26 37.7897 269.696 41.2723 270.534V270.534ZM52.1811 275.827C52.1219 274.582 51.0315 276.306 52.1811 275.827V275.827ZM185.301 357.606C190.136 356.636 201.155 360.07 202.934 356.323C197.059 356.179 182.621 352.177 181.941 357.275L183.226 357.479L185.301 357.606ZM55.6511 276.708C55.7399 272.855 52.6587 276.56 55.6511 276.708V276.708ZM26.9612 256.764C25.6594 249.434 22.0034 255.65 26.9612 256.764V256.764ZM33.7998 258.483C33.8885 256.129 27.5402 256.366 33.7998 258.483V258.483ZM37.7136 260.41C36.5809 259.495 36.8302 261.566 37.7136 260.41V260.41ZM62.3164 276.221C63.4787 275.15 59.5734 275.433 62.3164 276.221V276.221ZM35.1142 256.07C34.4464 250.535 27.181 255.244 35.1142 256.07V256.07ZM21.0736 246.953C20.8792 244.395 19.7126 247.914 21.0736 246.953V246.953ZM23.1657 245.374C22.8276 242.338 21.3737 245.755 23.1657 245.374V245.374ZM34.6916 252.263C39.569 250.349 25.8158 248.295 33.6941 251.903L34.6916 252.263ZM188.999 347.756C192.123 344.89 185.039 346.872 188.999 347.756V347.756ZM207.643 357.432C208.894 353.74 204.49 357.923 207.643 357.432V357.432ZM35.875 246.216C36.3864 242.625 32.0035 246.923 35.875 246.216V246.216ZM19.4675 235.203C18.5884 230.143 18.711 221.263 27.1345 224.261C15.8876 226.501 34.924 238.273 32.5234 228.974C37.2529 229.211 41.7711 226.175 39.2943 230.773C48.6139 229.749 55.0721 221.648 64.0789 222.783C71.0907 221.852 78.762 221.144 86.3148 218.316C92.5321 217.871 98.5169 211.168 95.1103 207.196C86.636 206.477 77.7645 207.544 68.3984 209.407C58.0222 211.566 48.5927 215.669 38.1193 217.435C27.908 218.811 40.1692 221.225 37.2402 221.758C31.919 223.613 43.597 224.858 36.5513 226.81C32.2021 225.98 27.6713 224.485 29.531 219.891C19.7549 221.166 11.1581 225.226 18.8842 235.194L19.4675 235.203V235.203ZM43.0348 223.181C45.3256 214.721 55.313 230.142 46.788 224.303C45.7736 223.537 44.0957 222.914 43.0348 223.181ZM43.4786 219.074C46.788 216.609 45.2326 220.463 43.4786 219.074V219.074ZM47.6756 219.146C47.9799 215.254 57.2995 221.208 49.2141 220.547L47.6756 219.146ZM53.4237 216.834C55.5243 214.369 54.0323 219.01 53.4237 216.834V216.834ZM54.8946 215.847C58.3899 211.638 74.6791 213.154 62.756 215.432C59.5607 213.023 57.1135 216.855 54.8946 215.847ZM76.1626 212.561C75.6343 201.065 86.729 216.639 76.1626 212.561V212.561ZM82.1981 212.519C84.4002 206.739 90.7612 210.199 83.221 211.359C83.3816 211.981 82.997 214.357 82.1981 212.519ZM33.4955 243.244C40.0847 239.2 26.5005 239.729 33.4955 243.244V243.244ZM38.3687 244.594C40.6806 242.134 33.3433 243.599 38.3687 244.594V244.594ZM24.0068 234.39C27.7727 231.485 19.5478 233.284 24.0068 234.39V234.39ZM218.644 356.378C218.758 353.011 215.766 357.889 218.644 356.378V356.378ZM198.868 342.857C199.435 338.987 196.324 343.192 198.868 342.857V342.857ZM224.084 357.682C229.35 357.707 240.039 356.043 228.581 356.047C226.78 356.323 218.108 356.272 224.084 357.682ZM42.6544 242.223C46.919 241.935 49.3239 237.515 41.826 237.764C30.2157 236.57 52.0712 241.753 40.334 240.271C38.766 241.313 42.5657 242.511 42.6544 242.223ZM46.4076 244.124C45.9638 241.389 45.0889 245.581 46.4076 244.124V244.124ZM50.8624 232.23C52.7094 229.935 48.3011 231.616 50.8624 232.23V232.23ZM36.6865 208.496C44.2943 205.909 54.7001 202.992 58.2885 209.771C54.6325 205.367 56.8092 201.027 60.2665 207.472C65.1482 213.988 67.5869 204.508 64.417 202.318C68.0349 206.82 72.1474 208.954 66.8388 202.602C72.6123 195.649 55.2834 203.517 51.3485 203.436C49.4507 204.283 31.7837 207.946 36.6865 208.496V208.496ZM41.1455 199.943C45.4778 196.661 56.1498 201.895 49.3028 196.678C48.6308 196.09 34.3196 200.637 41.1455 199.943ZM56.9656 200.599C62.0374 200.726 54.772 193.761 60.8202 196.915C59.8312 193.668 53.7787 193.062 50.8201 191.758C49.1422 194.735 54.2225 200.637 56.9656 200.599V200.599ZM43.9182 186.215C45.6764 183.827 40.8412 187.426 43.9182 186.215V186.215ZM50.3848 187.761C58.5674 186.677 48.2969 184.233 48.7322 187.676L50.3848 187.761ZM38.3137 178.305C32.5487 170.764 49.1507 179.571 43.2926 171.678C38.3645 167.749 33.6349 176.112 38.3137 178.305V178.305ZM112.241 218.197C114.882 213.506 101.336 211.871 110.465 216.537C111.298 216.813 111.112 218.515 112.241 218.197Z" fill="#626262"/>
<path d="M236.953 185.83C236.011 189.569 235.423 195.831 235.204 204.63C235.204 206.362 234.426 207.226 232.866 207.226C231.311 207.226 230.225 206.472 229.616 204.969C227.947 200.9 226.362 198.067 224.861 196.445C223.086 194.553 220.719 193.409 217.773 193.02C214.603 192.52 206.712 192.266 194.088 192.266C191.201 192.266 189.303 192.575 188.42 193.185C187.862 193.574 187.587 194.413 187.587 195.7V233.547C187.587 234.834 188.39 235.44 190 235.389C194.95 235.33 202.122 234.991 211.514 234.381C213.348 234.161 214.586 233.555 215.225 232.586C215.867 231.616 216.493 229.092 217.101 225.023C217.49 222.796 218.796 221.932 221.019 222.436C222.913 222.826 223.724 223.689 223.441 225.023C221.881 232.603 221.379 242.46 221.936 254.604C221.996 256.053 221.078 256.832 219.189 256.942C217.63 257.111 216.657 256.273 216.269 254.435C214.827 247.474 212.139 243.76 208.225 243.278C204.303 242.812 197.925 242.575 189.088 242.575C188.086 242.575 187.591 242.926 187.591 243.654V281.264C187.591 284.042 188.614 285.939 190.673 286.942C192.291 287.772 195.761 288.526 201.099 289.195C203.83 289.466 205.017 290.677 204.688 292.786C204.35 294.628 201.907 295.348 197.346 294.958C184.168 293.904 173.301 293.963 164.743 295.132C162.35 295.458 161.158 294.492 161.158 292.21C161.158 290.762 162.35 289.928 164.743 289.703C170.191 289.085 172.913 284.296 172.913 275.328V203.788C172.913 200.121 172.262 197.292 170.956 195.319C169.645 193.337 167.215 191.533 163.656 189.924C161.433 188.921 160.605 187.553 161.158 185.826C161.433 184.767 161.881 184.183 162.49 184.073C163.043 183.903 164.523 184.017 166.907 184.407C170.41 184.966 178.669 185.245 191.674 185.245C207.025 185.245 220.28 184.907 231.459 184.242C235.182 184.017 237.046 184.322 237.046 185.157C237.042 185.384 237.01 185.61 236.953 185.83V185.83ZM291.163 292.032C291.163 294.255 289.908 295.238 287.406 294.945C279.743 294.23 270.229 294.331 258.889 295.28C256.607 295.509 255.208 295.445 254.671 295.119C254.143 294.784 253.881 293.866 253.881 292.354C253.881 291.024 255.394 289.898 258.424 288.979C261.459 288.06 262.972 285.312 262.972 280.748V205.134C262.972 200.616 262.317 197.305 261.015 195.188C259.705 193.071 257.414 191.428 254.134 190.263C252.41 189.649 251.548 188.785 251.548 187.667C251.548 185.999 252.799 184.746 255.297 183.912C259.084 182.684 263.002 180.799 267.063 178.229C270.398 176.222 272.511 175.231 273.399 175.231C275.457 175.231 276.484 176.645 276.484 179.491C276.484 179.266 276.37 182.053 276.151 187.841C275.99 193.354 275.931 198.783 275.99 204.135L276.315 278.74C276.315 282.145 277.152 284.613 278.822 286.142C280.491 287.675 283.353 288.691 287.406 289.191C289.908 289.458 291.163 290.41 291.163 292.032V292.032ZM367.216 286.426C367.216 287.603 365.09 289.369 360.842 291.732C356.586 294.103 353.18 295.284 350.623 295.284C348.45 295.284 346.54 294.234 344.87 292.108C343.201 289.995 342.034 288.937 341.362 288.937C340.868 288.937 338.23 290.084 333.446 292.358C328.67 294.649 323.852 295.797 319.021 295.797C314.464 295.797 310.652 294.454 307.592 291.787C304.261 288.835 302.588 284.817 302.588 279.748C302.588 270.115 313.594 263.209 335.614 259.029C339.393 258.305 341.311 256.773 341.358 254.431L341.535 249.083C341.861 239.949 337.833 235.385 329.439 235.385C327.051 235.385 324.777 237.519 322.639 241.812C320.504 246.102 317.431 248.414 313.429 248.753C308.873 249.193 306.586 247.271 306.586 242.985C306.586 240.309 309.984 237.193 316.764 233.623C323.877 229.897 330.724 228.03 337.279 228.03C348.564 228.03 354.156 233.407 354.042 244.158L353.704 278.575C353.657 282.196 355.187 284.008 358.298 284.008C358.911 284.008 360.077 283.868 361.798 283.589C362.793 283.405 363.795 283.266 364.803 283.17C366.413 283.17 367.216 284.262 367.216 286.426V286.426ZM341.54 267.38C341.59 265.986 341.269 265.063 340.572 264.623C339.883 264.178 338.784 264.094 337.284 264.369C323.881 266.766 317.186 271.14 317.186 277.483C317.186 283.889 320.66 287.095 327.609 287.095C330.39 287.095 333.256 286.57 336.197 285.515C339.646 284.283 341.366 282.805 341.366 281.082L341.54 267.38V267.38ZM429.435 276.479C429.435 282.39 427.166 287.082 422.639 290.563C418.112 294.048 411.925 295.788 404.076 295.788C398.86 295.788 393.624 295.233 388.4 294.111C383.898 293.108 381.282 292.193 380.564 291.359C380.116 290.571 379.896 286.765 379.896 279.913C379.896 276.954 380.564 275.425 381.908 275.315C383.231 275.145 384.372 275.87 385.323 277.483C389.49 284.783 396.219 288.437 405.5 288.437C413.336 288.437 417.254 285.702 417.254 280.244C417.254 277.855 416.375 275.844 414.587 274.231C412.639 272.389 408.865 270.242 403.248 267.795C395.128 264.174 389.706 260.998 386.984 258.267C384.038 255.371 382.558 251.475 382.558 246.568C382.558 240.555 384.866 235.876 389.486 232.535C393.772 229.308 399.49 227.691 406.658 227.691C411.164 227.691 415.281 228.051 419.004 228.775C423.011 229.503 425.095 230.392 425.264 231.451C425.703 234.567 426.625 239.081 428.007 244.992C428.18 245.712 427.394 246.297 425.674 246.741C423.835 247.131 422.618 246.822 422.009 245.827C417.609 238.637 412.06 235.042 405.327 235.042C397.711 235.042 393.898 237.493 393.898 242.397C393.898 245.132 394.934 247.296 396.984 248.909C398.822 250.302 403.129 252.475 409.913 255.43C417.03 258.492 421.866 261.252 424.423 263.7C427.774 266.876 429.435 271.14 429.435 276.479V276.479ZM526.177 291.524C526.177 293.476 524.867 294.509 522.255 294.615C518.358 294.674 513.273 294.945 506.993 295.445C503.882 296.063 501.655 295.678 500.319 294.285C491.536 284.813 484.085 274.9 477.969 264.538C477.474 263.649 476.828 263.205 476.054 263.205C475.103 263.205 473.468 264.043 471.139 265.711C468.518 267.155 467.212 269.217 467.212 271.885C467.212 273.786 467.267 276.513 467.377 280.083C467.487 283.644 468.375 285.985 470.048 287.095C471.215 287.882 473.911 288.492 478.134 288.937C480.746 289.271 482.056 290.249 482.056 291.859C482.056 293.146 481.845 293.938 481.435 294.242C481.02 294.552 479.917 294.619 478.138 294.45C472.58 293.955 463.189 294.234 449.947 295.284C446.616 295.559 444.807 295.149 444.537 294.031C444.403 293.482 444.345 292.918 444.364 292.354C444.364 290.635 446.058 289.322 449.452 288.437C452.517 287.65 454.038 284.063 454.038 277.656V204.63C454.038 200.066 453.599 196.89 452.711 195.112C451.489 192.821 448.924 191.038 445.036 189.755C443.201 189.145 442.288 188.286 442.288 187.168C442.288 185.55 443.598 184.297 446.206 183.412C450.407 182.004 454.412 180.066 458.125 177.645C461.189 175.638 463.079 174.634 463.801 174.634C466.08 174.634 467.225 176.082 467.225 178.983C467.225 178.589 467.2 181.35 467.136 187.248C467.081 191.318 467.052 196.776 467.052 203.631L467.221 255.926C467.221 257.382 467.614 258.102 468.383 258.102C469.211 258.102 470.496 257.382 472.221 255.926C478.009 251.336 483.68 246.6 489.228 241.724C490.568 240.33 491.232 239.221 491.232 238.383C491.232 236.879 488.983 235.821 484.482 235.207C482.538 234.978 481.608 233.894 481.722 231.942C481.895 229.999 482.867 229.16 484.647 229.44C488.649 229.999 494.491 230.303 502.158 230.358C507.5 230.409 512.808 230.443 518.092 230.443C519.812 230.502 520.674 231.527 520.674 233.534C520.674 235.427 519.313 236.456 516.591 236.625C512.404 236.761 508.288 237.756 504.499 239.547C499.212 241.944 493.569 246.148 487.563 252.161C487.36 252.3 487.193 252.486 487.077 252.704C486.961 252.921 486.9 253.164 486.9 253.41C486.9 254.194 487.842 256.057 489.736 259.012C496.688 269.598 503.248 277.589 509.415 282.992C513.366 286.388 517.06 288.086 520.509 288.086C523.062 288.086 524.651 288.268 525.26 288.632C525.869 289.005 526.177 289.966 526.177 291.524V291.524Z" fill="#626262"/>
</svg>
