<svg width="542" height="542" viewBox="0 0 542 542" fill="none" xmlns="http://www.w3.org/2000/svg">
<path d="M79.4666 350.119C70.8158 343.319 61.5806 336.798 55.2756 327.605C42.0008 311.396 31.7833 292.638 24.7966 272.922C20.5707 260.101 19.1267 246.352 13.6813 234.03C7.99033 225.078 14.6595 215.293 24.4663 212.447C28.8277 211.609 36.5046 207.489 27.2398 210.431C18.932 216.529 18.1317 204.901 26.6512 204.16C32.4608 203.394 34.6034 198.635 32.6132 194.354C26.3718 190.28 47.7469 185.813 36.9916 179.736C25.7916 167.647 52.6588 165.323 46.032 179.051C44.4441 189.603 64.8114 177.111 60.0816 189.302C64.8876 195.158 78.0692 190.636 77.739 198.846C84.7341 199.329 87.1393 205.21 93.7025 205.664C100.511 208.742 112.846 211.16 115.162 218.832C108.413 224.172 92.7795 207.789 92.0257 222.584C94.0667 244.446 93.5416 266.96 101.545 287.777C105.326 300.387 114.498 310.303 122.78 320.127C130.707 329.743 141.441 336.51 152.383 342.205C161.978 346.732 172.322 349.73 182.785 351.618C187.024 348.375 194.519 336.315 201.133 341.401C201.45 347.117 188.002 353.35 200.502 352.723C207.844 350.5 212.934 358.397 218.981 351.271C224.549 357.868 242.13 347.062 238.167 360.544C232.802 364 224.989 361.904 219.624 366.671C210.775 362.247 203.733 370.622 193.93 369.572C183.052 371.511 171.979 372.303 160.949 372.316C142.851 370.889 124.372 370.283 107.159 363.987C97.45 361.167 87.9904 355.637 79.4666 350.119V350.119ZM94.7442 356.746C104.212 360.836 113.473 365.151 123.851 366.455C140.319 368.742 157.324 372.269 173.851 369.06C166.369 365.681 158.637 370.364 151.184 366.642C142.25 368.568 132.659 366.155 123.572 364.965C113.244 360.366 102.095 357.199 92.4195 351.224C80.3304 346.808 98.6695 356.89 101.938 357.707C109.493 361.997 93.6306 355.505 91.3906 353.727C85.0602 350.174 84.2514 350.915 90.7639 354.523C92.0765 355.281 93.3723 356.094 94.7442 356.746V356.746ZM76.7227 344.009C85.9028 347.413 76.6846 337.556 72.4841 338.128C70.621 334.892 65.3619 332.851 69.0712 331.12C62.4063 333.436 62.0845 322.316 58.9553 323.904C51.8966 321.677 56.2114 313.784 47.8019 308.94C47.0355 303.833 39.456 299.408 37.0381 291.706C35.9711 287.76 28.4678 276.441 33.0748 286.972C36.9958 297.118 43.8936 305.811 49.6439 314.487C54.0984 322.744 59.366 331.386 67.4833 336.54C70.2187 339.165 72.861 343.188 76.7227 344.009V344.009ZM50.2917 314.982C50.6051 313.598 51.9685 317.98 50.2917 314.982V314.982ZM87.7194 348.087C89.7476 347.168 84.7934 346.935 87.7194 348.087V348.087ZM92.699 349.899C92.1866 347.388 90.4209 351.305 92.699 349.899V349.899ZM98.9362 352.495C101.9 349.67 94.3589 350.712 98.9362 352.495V352.495ZM109.624 358.453C111.428 355.793 103.848 357.453 109.624 358.453V358.453ZM89.0998 344.149C93.7068 341.164 83.142 344.111 89.0998 344.149V344.149ZM93.7745 346.482C93.6433 344.907 92.1104 347.185 93.7745 346.482V346.482ZM117.153 361.074C120.913 363.449 139.104 366.269 127.713 362.043C125.803 362.45 106.592 356.615 117.153 361.074ZM80.0467 332.166C79.6783 330.59 74.2033 330.421 80.0467 332.166V332.166ZM90.9206 338.513C93.7576 336.54 85.0433 336.988 90.9206 338.513V338.513ZM100.08 344.128C104.145 342.591 93.4866 342.586 100.08 344.128V344.128ZM75.6091 327.343C80.0213 330.73 93.4019 327.783 82.3629 325.327C77.3409 322.651 66.0267 320.822 73.7417 326.94L75.6091 327.343V327.343ZM106.279 346.063C108.121 342.934 98.5721 344.276 106.279 346.063V346.063ZM96.9588 338.657C107.74 341.71 87.893 331.835 94.2996 337.535L95.7181 338.174L96.9588 338.657ZM115.649 349.454C125.858 349.556 106.423 348.049 115.649 349.454V349.454ZM71.6796 321.436C71.2815 319.534 69.1643 321.592 71.6796 321.436V321.436ZM132.917 359.147C133.188 355.717 129.589 361.705 132.917 359.147V359.147ZM89.1125 332.11C88.49 330.298 85.9198 332.03 89.1125 332.11V332.11ZM72.6535 320.246C78.5139 319.886 64.6209 317.667 72.6535 320.246V320.246ZM53.1499 307.64C52.4174 304.824 46.773 302.588 53.1499 307.64V307.64ZM104.344 340.13C103.272 338.902 103.835 340.397 104.344 340.13V340.13ZM136.203 359.681C136.106 357.809 134.467 360.388 136.203 359.681V359.681ZM101.523 337.217C102.099 334.799 96.5226 336.48 101.523 337.217V337.217ZM77.7855 322.172C82.1469 321.707 70.7946 319.221 77.7855 322.172V322.172ZM117.94 347.117C124.736 344.428 111.313 345.809 117.94 347.117V347.117ZM97.0519 332.945C104.886 333.952 87.7321 327.614 95.3286 332.373L97.0519 332.945ZM124.279 349.687C131.596 345.317 129.182 359.926 136.69 350.92C144.092 345.512 130.296 357.601 139.417 351.885C146.018 347.473 155.766 353.977 161.923 356.098C166.348 355.882 170.654 359.926 175.197 357.462C183.937 355.107 158.103 353.973 164.874 349.802C156.879 352.126 150.977 347.028 147.039 341.905C138.066 339.834 127.705 335.244 123.22 327.304C121.391 324.328 125.854 327.732 121.641 322.858C116.238 318.048 113.541 312.586 109.912 306.747C105.58 304.439 105.068 297.634 104.631 306.518C104.665 300.912 99.3978 297.135 98.1063 298.697C98.0851 293.294 103.751 296.004 99.7831 292.007C98.932 286.405 96.1204 280.574 95.2777 274.252C93.9693 271.199 95.0957 264.674 90.7978 271.572C89.2353 278.863 90.2812 262.616 92.7159 267.968C95.9044 262.497 91.5684 263.145 91.3906 263.899C93.4697 259.288 92.7075 252.746 90.8443 255.24C91.9495 250.349 92.5931 237.239 89.1887 239.568C91.2551 234.453 93.1097 216.161 84.1371 223.135C80.504 223.19 74.2075 224.447 71.2392 225.929C80.559 231.07 70.2992 227.788 66.4967 226.967C66.0055 231.73 62.2454 229.677 57.5452 229.719C65.0485 230.642 53.891 237.396 49.5931 234.771C43.9995 237.438 54.416 244.116 49.7032 246.178C50.2833 249.282 41.137 245.052 41.8526 252.233C36.4242 249.942 41.1116 260.753 43.8259 257.094C53.0568 259.597 50.3214 265.288 50.5543 270.695C49.0511 273.85 43.1272 263.285 49.2331 263.776C44.4144 255.947 43.9063 260.948 39.8963 264.585C38.969 264.843 50.1097 269.759 43.1187 272.186C49.267 273.138 49.4491 278.516 50.7067 281.925C54.3991 285.778 53.6411 277.673 58.0661 282.306C55.2629 278.173 43.233 270.678 52.917 273.083C52.8662 268.934 51.164 265.584 54.1365 265.665C57.0794 260.346 51.0539 278.791 57.6807 272.029C59.5184 271.224 59.9715 266.702 63.2701 272.457C68.0549 277.169 65.002 280.582 58.2439 276.255C59.4507 280.366 67.2801 281.823 65.8065 288.234C67.3647 293.878 69.5497 291.799 71.4509 291.473C72.9414 296.952 73.7925 292.926 73.8603 290.321C80.6861 291.782 79.0855 295.818 81.2281 298.642C85.9367 300.759 74.4912 284.245 82.5704 293.675C91.0688 301.348 85.7589 304.545 78.1328 303.321C82.9599 302.927 84.514 309.846 90.5564 309.605C96.0653 312.222 99.7958 322.283 90.2981 318.095C87.008 315.122 75.3508 311.464 84.8781 317.112C93.6644 321.182 100.647 323.612 109.124 328.727C115.188 333.051 117.809 338.009 120.108 339.004C115.01 341.426 104.746 337.052 112.368 335.714C107.608 334.854 102.26 332.441 106.812 338.369C110.691 341.604 120.536 341.269 122.306 341.629C120.807 344.919 118.241 345.186 122.361 345.44C117.775 347.9 123.856 348.286 124.279 349.687V349.687ZM114.866 323.108C112.063 320.178 111.334 314.699 114.366 319.462C115.92 320.089 119.342 328.422 114.866 323.108ZM145.519 342.574C147.267 342.459 145.574 343.903 145.519 342.574V342.574ZM110.445 315.918C110.335 311.493 111.457 319.335 110.445 315.918V315.918ZM107.401 311.828C103.874 305.023 111.843 313.75 107.401 311.828V311.828ZM70.477 286.345C72.5476 285.791 71.4975 289.877 70.477 286.345V286.345ZM99.8636 302.267C101.134 297.494 101.358 306.268 99.8636 302.267V302.267ZM79.1024 287.832C77.6416 285.202 82.1639 290.304 79.1024 287.832V287.832ZM96.9164 293.544C93.5798 286.066 99.2877 289.458 97.6575 294.768L96.9164 293.544ZM66.1918 273.054C64.7013 270.602 62.2327 263.408 63.033 261.206C63.7443 264.788 70.6379 276.606 66.4078 266.101C61.7373 257.298 71.9929 268.951 73.0473 271.157C73.5427 273.342 70.1637 270.56 72.4502 275.683C68.2836 269.852 69.9943 278.906 66.1918 273.054V273.054ZM56.7026 266.507C57.0921 260.804 58.8706 270.416 56.7026 266.507V266.507ZM60.9708 267.985C63.0076 263.679 64.4218 273.985 60.9708 267.985V267.985ZM50.694 260.033C47.1625 256.514 44.605 253.283 50.8676 257.856C53.2727 257.945 45.5027 250.484 51.4435 255.481C57.6892 256.624 54.5261 265.724 50.694 260.033ZM56.0928 259.893C58.1465 257.856 57.1811 261.896 56.0928 259.893V259.893ZM59.4168 260.956C56.3003 255.125 63.1939 263.408 59.4168 260.956V260.956ZM52.8154 254.651C42.5428 245.501 65.726 259.427 54.4922 256.345L52.8154 254.651ZM82.2613 271.754C77.8109 269.09 81.0756 252.987 82.6 263.996C86.9191 262.599 82.3587 269.687 85.581 269.62C85.0729 274.095 83.629 275.696 82.2613 271.754ZM93.1521 278.198C93.5882 273.342 94.0667 281.51 93.1521 278.198V278.198ZM91.2593 276.318C91.7463 274.256 91.3059 278.766 91.2593 276.318V276.318ZM54.8268 251.645C48.2211 242.541 74.0127 260.863 59.0569 253.957C57.4944 253.546 55.6101 253.393 54.8268 251.645ZM75.8038 262.76C75.1772 255.091 77.1927 264.03 75.8038 262.76V262.76ZM91.7209 272.977C92.9531 268.612 91.8182 275.865 91.7209 272.977V272.977ZM55.843 248.168C59.7683 247.33 72.0988 255.053 60.776 250.374C59.5184 248.981 56.8296 249.612 55.843 248.168V248.168ZM89.5359 264.962C89.9551 257.115 91.8818 260.283 89.5529 266.084L89.5359 264.962ZM58.7605 245.437C60.3568 243.091 54.5134 234.838 59.6031 242.481C61.8008 244.226 65.9632 245.403 62.2877 246.136C68.0719 251.242 60.8819 247.516 58.7605 245.437ZM87.8676 262.514C88.9728 253.58 88.8457 267.744 87.8676 262.514V262.514ZM55.4153 237.184C56.6433 236.663 56.0674 238.814 55.4153 237.184V237.184ZM63.016 241.702C64.9681 237.599 66.6153 246.275 63.016 241.702V241.702ZM84.425 253.618C84.4123 252.038 84.8358 255.909 84.425 253.618V253.618ZM83.1886 250.87C80.2203 243.54 85.9536 254.753 83.1886 250.87V250.87ZM81.3636 246.06C80.8682 243.036 83.0616 249.866 81.3636 246.06V246.06ZM84.3403 241.232C82.2951 237.637 86.9106 225.396 87.4314 232.992C85.2761 238.903 86.8132 242.219 88.308 234.284C91.0815 228.034 87.7067 246.606 84.3403 241.232ZM87.3891 223.02C88.2783 221.932 87.5881 224.337 87.3891 223.02V223.02ZM82.2909 323.481C81.0799 322.422 82.4433 324.146 82.2909 323.481V323.481ZM92.7922 328.787C98.6356 330.285 98.606 327.876 93.3257 327.16C90.4887 324.518 81.5245 321.715 89.5486 326.83C90.0737 328.181 91.7505 328.147 92.7922 328.787V328.787ZM72.0564 315.012C75.2703 317.417 84.1752 321.808 76.6423 315.927C79.1829 312.98 71.7812 311.404 74.2329 309.427C67.983 305.608 69.2998 305.951 73.6824 306.069C66.1749 302.707 74.7664 302.965 74.3642 301.238C71.4678 300.666 59.98 296.131 66.738 301.61C59.8699 298.113 65.0993 302.914 63.0245 302.406C55.9954 300.497 69.2787 307.759 61.9109 305.955C65.9378 309.143 72.7551 314.14 63.6088 309.33C62.4063 311.066 70.151 313.691 72.0564 315.012V315.012ZM83.0362 321.321C96.3871 325.615 76.4856 316.062 83.0362 321.321V321.321ZM139.26 355.387C139.434 352.736 137.439 357.644 139.26 355.387V355.387ZM145.04 357.813C148.123 354.836 145.167 362.573 150.143 357.085C150.198 353.155 149.994 350.831 144.426 355.603C142.885 356.462 142.203 360.07 145.04 357.813V357.813ZM53.3066 300.2C52.3623 296.491 46.6713 296.499 53.3066 300.2V300.2ZM59.4719 304.248C57.1811 300.45 51.2995 300.806 59.4719 304.248V304.248ZM94.5833 325.42C98.0131 328.469 110.327 327.656 98.7457 325.797C97.035 323.261 87.8591 323.862 94.5833 325.42ZM142.838 355.226C148.114 350.797 137.727 357.195 142.838 355.226V355.226ZM153.814 362.763C153.848 361.34 151.54 363.381 153.814 362.763V362.763ZM153.831 360.773C159.67 354.582 148.174 361.137 153.831 360.773V360.773ZM38.1264 287.497C33.1468 280.396 35.0311 277.203 30.2335 271.402C29.3189 266.965 21.9934 256.9 26.4437 267.562C30.5172 273.799 31.724 283.453 38.1264 287.497ZM151.997 358.808C162.748 351.864 147.585 355.776 151.997 358.808V358.808ZM160.199 362.018C165.585 357.394 156.795 361.057 160.199 362.018V362.018ZM51.4816 292.35C53.0187 290.063 47.5013 292.053 51.4816 292.35V292.35ZM158.488 359.824C163.701 356.471 157.286 356.983 157.544 360.129L158.488 359.824ZM87.7702 315.253C87.5923 312.984 85.0178 315.444 87.7702 315.253V315.253ZM92.1401 317.764C90.747 314.957 90.0059 318.209 92.1401 317.764V317.764ZM166.847 362.094C173.525 357.275 162.803 361.175 165.45 363.009L166.847 362.094ZM164.29 360.862C169.731 356.301 158.552 362.877 164.29 360.862V360.862ZM177.357 369.559C181.011 367.112 172.915 368.767 177.357 369.559V369.559ZM54.8268 290.698C59.7175 291.795 74.3853 302.754 65.7345 291.46C61.3011 290.148 63.9603 279.316 59.438 281.23C62.474 286.303 61.932 288.454 55.5635 285.261C47.5606 281.349 51.0624 287.196 52.6333 288.806C50.4992 289.288 55.4534 290.664 54.8268 290.698V290.698ZM32.5328 273.092C33.4093 269.463 24.4621 253.156 28.3069 264.915C29.6915 267.38 29.5518 272.046 32.5328 273.092ZM73.458 298.324C70.9301 296.216 73.3352 298.02 73.458 298.324V298.324ZM79.6614 299.768C79.6614 295.932 72.8017 298.206 79.6614 299.768V299.768ZM133.446 333.669C132.417 331.052 129.394 333.609 133.446 333.669V333.669ZM136.029 335.553C135.644 334.084 134.539 335.841 136.029 335.553V335.553ZM157.345 348.984C159.395 347.477 154.788 348.79 157.345 348.984V348.984ZM43.6649 275.933C49.5296 273.663 37.3769 274.316 43.6649 275.933V275.933ZM128.708 329.506C128.645 325.717 124.969 330.455 128.708 329.506V329.506ZM41.3487 270.534C45.1131 269.26 37.8596 269.696 41.3487 270.534V270.534ZM52.2777 275.827C52.2184 274.582 51.1259 276.306 52.2777 275.827V275.827ZM185.644 357.606C190.488 356.636 201.527 360.07 203.309 356.323C197.424 356.179 182.959 352.177 182.277 357.275L183.564 357.479L185.644 357.606ZM55.7541 276.708C55.843 272.855 52.7561 276.56 55.7541 276.708V276.708ZM27.0111 256.764C25.707 249.434 22.0442 255.65 27.0111 256.764V256.764ZM33.8624 258.483C33.9513 256.129 27.5913 256.366 33.8624 258.483V258.483ZM37.7834 260.41C36.6486 259.495 36.8984 261.566 37.7834 260.41V260.41ZM62.4317 276.221C63.5961 275.15 59.6836 275.433 62.4317 276.221V276.221ZM35.1793 256.07C34.5102 250.535 27.2313 255.244 35.1793 256.07V256.07ZM21.1127 246.953C20.9179 244.395 19.7492 247.914 21.1127 246.953V246.953ZM23.2087 245.374C22.8699 242.338 21.4133 245.755 23.2087 245.374V245.374ZM34.7558 252.263C39.6423 250.349 25.8636 248.295 33.7565 251.903L34.7558 252.263ZM189.349 347.756C192.478 344.89 185.381 346.872 189.349 347.756V347.756ZM208.026 357.432C209.28 353.74 204.868 357.923 208.026 357.432V357.432ZM35.9414 246.216C36.4538 242.625 32.0628 246.923 35.9414 246.216V246.216ZM19.5036 235.203C18.6228 230.143 18.7456 221.263 27.1848 224.261C15.9171 226.501 34.9887 238.273 32.5836 228.974C37.3218 229.211 41.8484 226.175 39.3671 230.773C48.7038 229.749 55.174 221.648 64.1974 222.783C71.2223 221.852 78.9076 221.144 86.4745 218.316C92.7032 217.871 98.6991 211.168 95.2862 207.196C86.7963 206.477 77.9083 207.544 68.525 209.407C58.1296 211.566 48.6827 215.669 38.1899 217.435C27.9596 218.811 40.2436 221.225 37.3091 221.758C31.9781 223.613 43.6776 224.858 36.6189 226.81C32.2618 225.98 27.7225 224.485 29.5856 219.891C19.7915 221.166 11.1788 225.226 18.9193 235.194L19.5036 235.203V235.203ZM43.1145 223.181C45.4095 214.721 55.4153 230.142 46.8746 224.303C45.8583 223.537 44.1773 222.914 43.1145 223.181ZM43.5591 219.074C46.8746 216.609 45.3163 220.463 43.5591 219.074V219.074ZM47.7638 219.146C48.0687 215.254 57.4055 221.208 49.3051 220.547L47.7638 219.146ZM53.5226 216.834C55.6271 214.369 54.1323 219.01 53.5226 216.834V216.834ZM54.9961 215.847C58.498 211.638 74.8172 213.154 62.8721 215.432C59.6709 213.023 57.2192 216.855 54.9961 215.847ZM76.3035 212.561C75.7742 201.065 86.8894 216.639 76.3035 212.561V212.561ZM82.3502 212.519C84.5563 206.739 90.929 210.199 83.3749 211.359C83.5358 211.981 83.1505 214.357 82.3502 212.519ZM33.5575 243.244C40.1589 239.2 26.5496 239.729 33.5575 243.244V243.244ZM38.4397 244.594C40.7559 242.134 33.4051 243.599 38.4397 244.594V244.594ZM24.0513 234.39C27.8241 231.485 19.5841 233.284 24.0513 234.39V234.39ZM219.049 356.378C219.163 353.011 216.165 357.889 219.049 356.378V356.378ZM199.236 342.857C199.803 338.987 196.687 343.192 199.236 342.857V342.857ZM224.498 357.682C229.774 357.707 240.483 356.043 229.004 356.047C227.2 356.323 218.511 356.272 224.498 357.682ZM42.7334 242.223C47.0059 241.935 49.4152 237.515 41.9034 237.764C30.2716 236.57 52.1676 241.753 40.4087 240.271C38.8378 241.313 42.6445 242.511 42.7334 242.223ZM46.4935 244.124C46.0489 241.389 45.1724 245.581 46.4935 244.124V244.124ZM50.9565 232.23C52.807 229.935 48.3905 231.616 50.9565 232.23V232.23ZM36.7544 208.496C44.3763 205.909 54.8013 202.992 58.3963 209.771C54.7336 205.367 56.9143 201.027 60.378 207.472C65.2687 213.988 67.712 204.508 64.5362 202.318C68.1608 206.82 72.2808 208.954 66.9625 202.602C72.7466 195.649 55.3857 203.517 51.4435 203.436C49.5423 204.283 31.8426 207.946 36.7544 208.496V208.496ZM41.2217 199.943C45.5619 196.661 56.2537 201.895 49.394 196.678C48.7208 196.09 34.3832 200.637 41.2217 199.943ZM57.071 200.599C62.1522 200.726 54.8733 193.761 60.9327 196.915C59.9419 193.668 53.8783 193.062 50.9142 191.758C49.2331 194.735 54.3229 200.637 57.071 200.599V200.599ZM43.9995 186.215C45.761 183.827 40.9168 187.426 43.9995 186.215V186.215ZM50.478 187.761C58.6758 186.677 48.3863 184.233 48.8224 187.676L50.478 187.761ZM38.3847 178.305C32.609 170.764 49.2416 179.571 43.3728 171.678C38.4355 167.749 33.6972 176.112 38.3847 178.305V178.305ZM112.448 218.197C115.095 213.506 101.523 211.871 110.67 216.537C111.504 216.813 111.318 218.515 112.448 218.197Z" fill="black"/>
<path d="M237.393 185.83C236.448 189.569 235.86 195.831 235.64 204.63C235.64 206.362 234.86 207.226 233.298 207.226C231.74 207.226 230.651 206.472 230.042 204.969C228.369 200.9 226.781 198.067 225.278 196.445C223.5 194.553 221.128 193.409 218.177 193.02C215.001 192.52 207.096 192.266 194.448 192.266C191.556 192.266 189.654 192.575 188.769 193.185C188.21 193.574 187.935 194.413 187.935 195.7V233.547C187.935 234.834 188.74 235.44 190.353 235.389C195.311 235.33 202.497 234.991 211.906 234.381C213.744 234.161 214.984 233.555 215.624 232.586C216.267 231.616 216.894 229.092 217.504 225.023C217.893 222.796 219.202 221.932 221.429 222.436C223.326 222.826 224.139 223.689 223.855 225.023C222.293 232.603 221.789 242.46 222.348 254.604C222.407 256.053 221.488 256.832 219.596 256.942C218.033 257.111 217.059 256.273 216.67 254.435C215.226 247.474 212.533 243.76 208.612 243.278C204.682 242.812 198.292 242.575 189.438 242.575C188.435 242.575 187.939 242.926 187.939 243.654V281.264C187.939 284.042 188.964 285.939 191.026 286.942C192.648 287.772 196.124 288.526 201.472 289.195C204.208 289.466 205.398 290.677 205.067 292.786C204.729 294.628 202.281 295.348 197.712 294.958C184.51 293.904 173.623 293.963 165.048 295.132C162.652 295.458 161.458 294.492 161.458 292.21C161.458 290.762 162.652 289.928 165.048 289.703C170.506 289.085 173.233 284.296 173.233 275.328V203.788C173.233 200.121 172.581 197.292 171.273 195.319C169.96 193.337 167.525 191.533 163.96 189.924C161.733 188.921 160.903 187.553 161.458 185.826C161.733 184.767 162.182 184.183 162.791 184.073C163.346 183.903 164.828 184.017 167.216 184.407C170.727 184.966 179.001 185.245 192.03 185.245C207.409 185.245 220.688 184.907 231.888 184.242C235.618 184.017 237.486 184.322 237.486 185.157C237.481 185.384 237.45 185.61 237.393 185.83V185.83ZM291.703 292.032C291.703 294.255 290.445 295.238 287.938 294.945C280.261 294.23 270.73 294.331 259.369 295.28C257.082 295.509 255.681 295.445 255.143 295.119C254.614 294.784 254.351 293.866 254.351 292.354C254.351 291.024 255.867 289.898 258.903 288.979C261.944 288.06 263.459 285.312 263.459 280.748V205.134C263.459 200.616 262.803 197.305 261.499 195.188C260.186 193.071 257.891 191.428 254.605 190.263C252.878 189.649 252.014 188.785 252.014 187.667C252.014 185.999 253.267 184.746 255.77 183.912C259.564 182.684 263.489 180.799 267.558 178.229C270.899 176.222 273.016 175.231 273.906 175.231C275.968 175.231 276.997 176.645 276.997 179.491C276.997 179.266 276.882 182.053 276.662 187.841C276.501 193.354 276.442 198.783 276.501 204.135L276.827 278.74C276.827 282.145 277.666 284.613 279.338 286.142C281.011 287.675 283.878 288.691 287.938 289.191C290.445 289.458 291.703 290.41 291.703 292.032V292.032ZM367.896 286.426C367.896 287.603 365.766 289.369 361.511 291.732C357.247 294.103 353.834 295.284 351.272 295.284C349.095 295.284 347.182 294.234 345.509 292.108C343.836 289.995 342.668 288.937 341.994 288.937C341.499 288.937 338.857 290.084 334.063 292.358C329.279 294.649 324.451 295.797 319.611 295.797C315.047 295.797 311.227 294.454 308.162 291.787C304.825 288.835 303.148 284.817 303.148 279.748C303.148 270.115 314.175 263.209 336.236 259.029C340.021 258.305 341.944 256.773 341.99 254.431L342.168 249.083C342.494 239.949 338.459 235.385 330.049 235.385C327.657 235.385 325.379 237.519 323.236 241.812C321.098 246.102 318.019 248.414 314.009 248.753C309.445 249.193 307.154 247.271 307.154 242.985C307.154 240.309 310.558 237.193 317.35 233.623C324.477 229.897 331.336 228.03 337.904 228.03C349.21 228.03 354.812 233.407 354.698 244.158L354.359 278.575C354.312 282.196 355.845 284.008 358.962 284.008C359.576 284.008 360.744 283.868 362.468 283.589C363.465 283.405 364.469 283.266 365.478 283.17C367.092 283.17 367.896 284.262 367.896 286.426V286.426ZM342.172 267.38C342.223 265.986 341.901 265.063 341.203 264.623C340.512 264.178 339.411 264.094 337.908 264.369C324.481 266.766 317.774 271.14 317.774 277.483C317.774 283.889 321.254 287.095 328.216 287.095C331.002 287.095 333.873 286.57 336.82 285.515C340.275 284.283 341.999 282.805 341.999 281.082L342.172 267.38V267.38ZM430.23 276.479C430.23 282.39 427.956 287.082 423.421 290.563C418.886 294.048 412.687 295.788 404.824 295.788C399.599 295.788 394.352 295.233 389.119 294.111C384.609 293.108 381.988 292.193 381.268 291.359C380.819 290.571 380.599 286.765 380.599 279.913C380.599 276.954 381.268 275.425 382.615 275.315C383.94 275.145 385.083 275.87 386.036 277.483C390.211 284.783 396.952 288.437 406.251 288.437C414.102 288.437 418.027 285.702 418.027 280.244C418.027 277.855 417.146 275.844 415.355 274.231C413.403 272.389 409.622 270.242 403.994 267.795C395.86 264.174 390.427 260.998 387.7 258.267C384.749 255.371 383.267 251.475 383.267 246.568C383.267 240.555 385.579 235.876 390.207 232.535C394.501 229.308 400.23 227.691 407.411 227.691C411.925 227.691 416.049 228.051 419.78 228.775C423.794 229.503 425.882 230.392 426.051 231.451C426.491 234.567 427.414 239.081 428.799 244.992C428.973 245.712 428.185 246.297 426.462 246.741C424.62 247.131 423.4 246.822 422.791 245.827C418.383 238.637 412.823 235.042 406.077 235.042C398.447 235.042 394.628 237.493 394.628 242.397C394.628 245.132 395.665 247.296 397.719 248.909C399.561 250.302 403.876 252.475 410.672 255.43C417.802 258.492 422.647 261.252 425.208 263.7C428.566 266.876 430.23 271.14 430.23 276.479V276.479ZM527.151 291.524C527.151 293.476 525.838 294.509 523.221 294.615C519.317 294.674 514.223 294.945 507.931 295.445C504.815 296.063 502.583 295.678 501.245 294.285C492.446 284.813 484.981 274.9 478.854 264.538C478.358 263.649 477.71 263.205 476.935 263.205C475.983 263.205 474.344 264.043 472.011 265.711C469.386 267.155 468.077 269.217 468.077 271.885C468.077 273.786 468.132 276.513 468.242 280.083C468.352 283.644 469.242 285.985 470.918 287.095C472.087 287.882 474.789 288.492 479.019 288.937C481.636 289.271 482.948 290.249 482.948 291.859C482.948 293.146 482.737 293.938 482.326 294.242C481.911 294.552 480.806 294.619 479.023 294.45C473.455 293.955 464.046 294.234 450.78 295.284C447.443 295.559 445.631 295.149 445.36 294.031C445.226 293.482 445.168 292.918 445.186 292.354C445.186 290.635 446.884 289.322 450.284 288.437C453.354 287.65 454.879 284.063 454.879 277.656V204.63C454.879 200.066 454.438 196.89 453.549 195.112C452.325 192.821 449.755 191.038 445.859 189.755C444.022 189.145 443.107 188.286 443.107 187.168C443.107 185.55 444.42 184.297 447.032 183.412C451.241 182.004 455.254 180.066 458.973 177.645C462.043 175.638 463.936 174.634 464.66 174.634C466.942 174.634 468.09 176.082 468.09 178.983C468.09 178.589 468.064 181.35 468.001 187.248C467.946 191.318 467.916 196.776 467.916 203.631L468.086 255.926C468.086 257.382 468.479 258.102 469.25 258.102C470.08 258.102 471.367 257.382 473.095 255.926C478.893 251.336 484.575 246.6 490.134 241.724C491.476 240.33 492.141 239.221 492.141 238.383C492.141 236.879 489.888 235.821 485.379 235.207C483.431 234.978 482.499 233.894 482.614 231.942C482.787 229.999 483.761 229.16 485.544 229.44C489.554 229.999 495.406 230.303 503.087 230.358C508.439 230.409 513.758 230.443 519.051 230.443C520.774 230.502 521.638 231.527 521.638 233.534C521.638 235.427 520.274 236.456 517.547 236.625C513.352 236.761 509.229 237.756 505.433 239.547C500.136 241.944 494.483 246.148 488.466 252.161C488.262 252.3 488.094 252.486 487.979 252.704C487.863 252.921 487.802 253.164 487.801 253.41C487.801 254.194 488.745 256.057 490.642 259.012C497.608 269.598 504.179 277.589 510.357 282.992C514.317 286.388 518.017 288.086 521.473 288.086C524.03 288.086 525.622 288.268 526.232 288.632C526.842 289.005 527.151 289.966 527.151 291.524V291.524Z" fill="black"/>
</svg>
