<svg width="541" height="541" viewBox="0 0 541 541" fill="none" xmlns="http://www.w3.org/2000/svg">
<path d="M527.23 246.738L294.274 13.7955C280.868 0.380415 259.109 0.380415 245.681 13.7955L197.317 62.1728L258.678 123.534C272.943 118.72 289.291 121.949 300.656 133.314C306.073 138.735 309.854 145.571 311.568 153.04C313.282 160.51 312.859 168.31 310.348 175.55L369.486 234.697C383.793 229.764 400.306 232.951 411.726 244.397C427.703 260.361 427.703 286.24 411.726 302.212C407.929 306.01 403.422 309.024 398.46 311.079C393.499 313.135 388.181 314.193 382.81 314.193C377.44 314.193 372.122 313.135 367.16 311.079C362.199 309.024 357.691 306.01 353.894 302.212C348.19 296.504 344.302 289.237 342.718 281.324C341.135 273.411 341.928 265.207 344.997 257.744L289.849 202.592L289.84 347.736C293.842 349.707 297.495 352.316 300.656 355.462C316.628 371.426 316.628 397.297 300.656 413.294C284.684 429.258 258.796 429.258 242.841 413.294C226.873 397.301 225.563 371.43 241.527 355.462C245.474 351.519 249.367 348.539 253.594 346.544V200.056C249.367 198.061 245.479 195.102 241.522 191.134C229.43 179.046 227.169 161.294 233.374 146.434L173.217 85.9387L13.6473 245.661C0.228 259.088 0.312531 280.847 13.7319 294.266L246.725 527.209C260.136 540.624 281.911 540.624 295.343 527.209L527.213 295.348C540.632 281.924 540.645 260.153 527.23 246.738V246.738Z" fill="#626262"/>
</svg>
