<svg width="542" height="542" viewBox="0 0 542 542" fill="none" xmlns="http://www.w3.org/2000/svg">
<path d="M528.183 247.194L294.802 13.821C281.37 0.381113 259.572 0.381113 246.119 13.821L197.661 62.2877L259.135 123.762C273.426 118.939 289.805 122.174 301.191 133.561C312.637 145.019 315.846 161.537 310.905 175.875L370.152 235.126C384.486 230.185 401.029 233.378 412.471 244.844C428.477 260.838 428.477 286.765 412.471 302.766C408.667 306.572 404.151 309.591 399.18 311.65C394.209 313.71 388.882 314.77 383.501 314.77C378.121 314.77 372.793 313.71 367.822 311.65C362.852 309.591 358.335 306.572 354.532 302.766C348.817 297.048 344.921 289.767 343.335 281.84C341.749 273.913 342.544 265.693 345.618 258.216L290.368 202.966L290.36 348.379C294.368 350.353 298.028 352.968 301.196 356.119C317.193 372.113 317.193 398.031 301.196 414.058C285.194 430.052 259.258 430.052 243.273 414.058C227.276 398.036 227.276 372.117 243.273 356.119C247.106 352.281 251.665 349.243 256.684 347.185V200.426C251.661 198.373 247.101 195.333 243.273 191.487C231.155 179.377 228.237 161.592 234.453 146.704L173.847 86.0976L13.8212 246.115C7.3651 252.573 3.73828 261.331 3.73828 270.462C3.73828 279.594 7.3651 288.352 13.8212 294.81L247.207 528.183C260.647 541.623 282.437 541.623 295.898 528.183L528.188 295.894C534.642 289.434 538.268 280.675 538.267 271.543C538.266 262.411 534.639 253.653 528.183 247.194V247.194Z" fill="#F34F29"/>
</svg>
