<svg width="539" height="539" viewBox="0 0 539 539" fill="none" xmlns="http://www.w3.org/2000/svg">
<path fill-rule="evenodd" clip-rule="evenodd" d="M269.723 0C120.573 0 0 123.52 0 276.332C0 398.482 77.2554 501.88 184.429 538.476C197.829 541.227 202.737 532.53 202.737 525.214C202.737 518.808 202.295 496.849 202.295 473.97C127.265 490.443 111.64 441.029 111.64 441.029C99.5823 409.004 81.7163 400.773 81.7163 400.773C57.1589 383.845 83.5051 383.845 83.5051 383.845C110.746 385.675 125.04 412.21 125.04 412.21C149.15 454.297 188.001 442.405 203.631 435.083C205.862 417.24 213.011 404.888 220.603 398.027C160.761 391.621 97.799 367.832 97.799 261.689C97.799 231.494 108.51 206.79 125.481 187.577C122.804 180.716 113.423 152.345 128.165 114.374C128.165 114.374 150.939 107.053 202.289 142.739C224.275 136.69 246.948 133.613 269.723 133.587C292.497 133.587 315.713 136.793 337.151 142.739C388.507 107.053 411.281 114.374 411.281 114.374C426.023 152.345 416.637 180.716 413.959 187.577C431.378 206.79 441.647 231.494 441.647 261.689C441.647 367.832 378.685 391.161 318.396 398.027C328.224 406.719 336.704 423.186 336.704 449.266C336.704 486.322 336.262 516.062 336.262 525.208C336.262 532.53 341.176 541.227 354.57 538.481C461.743 501.874 538.999 398.482 538.999 276.332C539.44 123.52 418.426 0 269.723 0Z" fill="white"/>
</svg>
