<svg width="541" height="541" viewBox="0 0 541 541" fill="none" xmlns="http://www.w3.org/2000/svg">
<path d="M82.709 114.117L116.889 494.165L270.267 535.087L424.072 494.939L458.29 114.117H82.709ZM387.195 200.639L385.052 225.297L384.109 236.688H204.189L208.487 287.406H379.832L378.687 296.836L367.634 419.021L366.823 426.164L270.499 452.09V452.069L270.385 452.12L174.117 427.115L167.583 355.031H214.785L218.128 390.788L270.474 404.055L270.499 403.066V403.117L322.959 391.921L328.437 333.898H165.482L153.927 203.568L152.798 190.195H388.319L387.195 200.639V200.639ZM118.157 6.87659H141.919V30.3594H163.66V6.87659H187.426V77.9758H163.66V54.1676H141.923V77.9758H118.157V6.87659ZM218.673 30.4566H197.752V6.87659H263.369V30.4566H242.439V77.9758H218.673V30.4566V30.4566ZM273.783 6.87659H298.56L313.805 31.8598L329.033 6.87659H353.822V77.9758H330.149V42.7347L313.805 68.0138H313.391L297.034 42.7347V77.9758H273.779V6.87659H273.783ZM365.652 6.87659H389.422V54.4761H422.842V77.9801H365.652V6.87659V6.87659Z" fill="#E44D26"/>
</svg>
