<svg width="541" height="541" viewBox="0 0 541 541" fill="none" xmlns="http://www.w3.org/2000/svg">
<path d="M201.257 414.71C120.141 437.373 250.61 484.191 353.899 439.939C336.98 433.362 324.846 425.775 324.846 425.775C278.789 434.482 257.424 435.167 215.614 430.391C181.109 426.439 201.257 414.71 201.257 414.71V414.71ZM341.532 370.5C280.484 382.246 245.222 381.87 200.559 377.263C166.024 373.691 188.632 356.954 188.632 356.954C99.2953 386.608 238.366 420.256 363.227 383.734C349.956 379.059 341.532 370.5 341.532 370.5V370.5ZM389.373 114.476C389.377 114.476 208.767 159.57 295.023 258.97C320.484 288.281 288.345 314.634 288.345 314.634C288.345 314.634 352.965 281.282 323.295 239.498C295.573 200.55 274.321 181.201 389.373 114.476ZM431.63 457.437C431.63 457.437 446.545 469.736 415.197 479.241C355.594 497.297 167.072 502.741 114.71 479.964C95.9014 471.773 131.189 460.416 142.292 458.02C153.869 455.513 160.479 455.97 160.479 455.97C139.549 441.232 25.1741 484.922 102.398 497.454C312.969 531.587 486.241 482.082 431.63 457.437V457.437ZM359.258 329.232C369.381 322.326 383.363 316.329 383.363 316.329C383.363 316.329 343.531 323.45 303.848 326.785C255.268 330.86 203.159 331.663 177.001 328.163C115.073 319.883 210.953 297.106 210.953 297.106C210.953 297.106 173.708 294.587 127.926 316.734C73.7753 342.918 261.87 354.854 359.258 329.232ZM382.965 393.244C382.509 394.469 380.987 395.847 380.987 395.847C513.164 361.101 464.567 273.366 401.368 295.572C395.822 297.533 392.915 302.094 392.915 302.094C392.915 302.094 396.418 300.682 404.233 299.05C436.182 292.394 481.956 341.819 382.965 393.244ZM271.266 296.151C251.764 252.072 185.636 213.509 271.295 145.859C378.105 61.5514 323.299 6.70755 323.299 6.70755C345.404 93.8085 245.315 120.119 209.186 174.363C184.583 211.324 221.261 251.041 271.266 296.151V296.151ZM386.541 514.867C305.446 530.133 205.416 528.354 146.104 518.561C146.104 518.561 158.252 528.62 220.686 532.64C315.683 538.713 461.6 529.259 465.049 484.305C465.054 484.305 458.414 501.346 386.541 514.867Z" fill="#626262"/>
</svg>
