<svg width="541" height="541" viewBox="0 0 541 541" fill="none" xmlns="http://www.w3.org/2000/svg">
<path d="M201.255 414.71C201.255 414.71 181.107 426.435 215.613 430.391C257.422 435.167 278.788 434.482 324.849 425.775C324.849 425.775 336.983 433.362 353.898 439.939C250.605 484.191 120.135 437.373 201.255 414.71ZM188.627 356.954C188.627 356.954 166.023 373.687 200.558 377.263C245.22 381.874 280.482 382.25 341.531 370.5C341.531 370.5 349.954 379.059 363.222 383.734C238.36 420.251 99.2897 386.608 188.627 356.954V356.954Z" fill="#0074BD"/>
<path d="M295.022 258.966C320.487 288.277 288.344 314.629 288.344 314.629C288.344 314.629 352.963 281.278 323.293 239.494C295.571 200.546 274.32 181.201 389.375 114.472C389.375 114.476 208.77 159.57 295.022 258.966V258.966Z" fill="#EA2D2E"/>
<path d="M431.63 457.437C431.63 457.437 446.546 469.736 415.197 479.241C355.594 497.297 167.073 502.741 114.714 479.964C95.9015 471.773 131.193 460.416 142.296 458.02C153.873 455.514 160.483 455.97 160.483 455.97C139.549 441.232 25.1784 484.922 102.398 497.454C312.969 531.587 486.241 482.082 431.63 457.437V457.437ZM210.957 297.102C210.957 297.102 115.073 319.879 177.005 328.159C203.159 331.658 255.272 330.855 303.848 326.781C343.536 323.446 383.363 316.324 383.363 316.324C383.363 316.324 369.381 322.322 359.254 329.228C261.866 354.845 73.7754 342.914 127.93 316.726C173.712 294.583 210.957 297.102 210.957 297.102V297.102ZM382.965 393.244C481.956 341.819 436.182 292.398 404.233 299.055C396.423 300.682 392.919 302.098 392.919 302.098C392.919 302.098 395.827 297.537 401.372 295.576C464.572 273.366 513.169 361.101 380.987 395.851C380.987 395.843 382.505 394.469 382.965 393.244V393.244Z" fill="#0074BD"/>
<path d="M323.293 6.70752C323.293 6.70752 378.103 61.5514 271.294 145.859C185.638 213.509 251.763 252.072 271.264 296.151C221.26 251.041 184.582 211.324 209.184 174.363C245.313 120.119 345.402 93.8085 323.293 6.70752Z" fill="#EA2D2E"/>
<path d="M220.686 532.636C315.682 538.709 461.6 529.254 465.053 484.301C465.053 484.301 458.413 501.342 386.536 514.863C305.445 530.129 205.411 528.35 146.1 518.557C146.1 518.561 158.251 528.62 220.686 532.636V532.636Z" fill="#0074BD"/>
</svg>
