<svg width="541" height="542" viewBox="0 0 541 542" fill="none" xmlns="http://www.w3.org/2000/svg">
<path d="M8.45312 4.23438V533.531H536.773V4.23438H8.45312ZM287.909 455.25C280.111 471.125 265.225 481.554 247.977 486.589C221.472 492.686 196.121 489.21 177.262 477.87C164.642 470.113 154.785 458.172 148.095 444.415L188.331 419.728C188.682 419.876 189.739 421.79 191.151 424.263C196.282 432.876 200.707 438.973 209.405 443.254C217.951 446.176 236.713 448.043 243.957 432.978C248.382 425.313 246.975 400.678 246.975 373.421C246.971 330.59 247.169 287.938 247.169 245.594H296.658C296.658 292.172 296.912 336.286 296.658 381.737C296.764 409.6 299.177 434.438 287.909 455.25ZM493.21 441.243C476.008 500.194 380.099 502.108 341.773 463.16C333.674 453.993 328.598 449.204 323.767 438.622C344.135 426.884 344.135 426.884 363.954 415.396C374.719 431.974 384.672 441.091 402.58 444.821C426.874 447.794 451.317 439.431 445.835 413.58C440.201 392.467 396.088 387.331 366.067 364.753C335.589 344.246 328.446 294.416 353.493 265.944C361.84 255.413 376.075 247.554 391.012 243.777L406.6 241.757C436.528 241.152 455.235 249.07 468.967 264.432C472.788 268.311 475.907 272.495 481.739 281.561C465.797 291.74 465.847 291.643 443.011 306.454C438.134 295.928 430.04 289.322 421.485 286.451C408.206 282.42 391.46 286.803 387.986 300.861C386.781 305.193 387.031 309.224 388.945 316.38C394.326 328.672 412.381 334.016 428.578 341.473C475.201 360.417 490.945 380.73 494.816 404.908C498.544 425.724 493.916 439.227 493.21 441.243V441.243Z" fill="#626262"/>
</svg>
