<svg width="529" height="530" viewBox="0 0 529 530" fill="none" xmlns="http://www.w3.org/2000/svg">
<path d="M0.453125 0.234375V529.531H528.773V0.234375H0.453125ZM279.909 451.25C272.111 467.125 257.225 477.554 239.977 482.589C213.472 488.686 188.121 485.21 169.262 473.87C156.642 466.113 146.785 454.172 140.095 440.415L180.331 415.728C180.682 415.876 181.739 417.79 183.151 420.263C188.282 428.876 192.707 434.973 201.405 439.254C209.951 442.176 228.713 444.043 235.957 428.978C240.382 421.313 238.975 396.678 238.975 369.421C238.971 326.59 239.169 283.938 239.169 241.594H288.658C288.658 288.172 288.912 332.286 288.658 377.737C288.764 405.6 291.177 430.438 279.909 451.25ZM485.21 437.243C468.008 496.194 372.099 498.108 333.773 459.16C325.674 449.993 320.598 445.204 315.767 434.622C336.135 422.884 336.135 422.884 355.954 411.396C366.719 427.974 376.672 437.091 394.58 440.821C418.874 443.794 443.317 435.431 437.835 409.58C432.201 388.467 388.088 383.331 358.067 360.753C327.589 340.246 320.446 290.416 345.493 261.944C353.84 251.413 368.075 243.554 383.012 239.777L398.6 237.757C428.528 237.152 447.235 245.07 460.967 260.432C464.788 264.311 467.907 268.495 473.739 277.561C457.797 287.74 457.847 287.643 435.011 302.454C430.134 291.928 422.04 285.322 413.486 282.451C400.206 278.42 383.46 282.803 379.986 296.861C378.781 301.193 379.031 305.224 380.945 312.38C386.326 324.672 404.381 330.016 420.578 337.473C467.201 356.417 482.945 376.73 486.816 400.908C490.544 421.724 485.916 435.227 485.21 437.243Z" fill="#F0DB4F"/>
</svg>
