<svg width="542" height="542" viewBox="0 0 542 542" fill="none" xmlns="http://www.w3.org/2000/svg">
<path d="M28.1506 285.194C28.1506 301.75 26.6135 307.14 22.6628 311.108C18.276 314.538 12.5723 316.422 6.64844 316.422L8.18975 325.882C17.3529 325.979 26.2494 323.184 33.198 318.023C36.9369 314.085 39.7147 309.554 41.3703 304.676C43.0161 299.846 43.5191 294.701 42.8396 289.644V226.996H28.1506V285.194ZM137.749 277.733C137.749 284.829 137.749 291.164 138.397 296.656H125.346L124.47 285.393C121.739 289.373 117.835 292.667 113.156 294.92C108.374 297.209 103.124 298.351 97.823 298.257C85.1029 298.257 69.9651 292.303 69.9651 267.989V227.581H84.671V265.428C84.671 278.575 89.3839 287.374 102.65 287.374C105.364 287.41 108.063 286.968 110.624 286.07C113.093 285.209 115.382 283.896 117.373 282.2C119.256 280.592 120.782 278.609 121.853 276.378C122.886 274.233 123.408 271.877 123.377 269.497V227.102H138.062V277.352L137.749 277.733ZM165.607 250.095C165.607 241.292 165.607 234.097 164.942 227.581H178.111L178.755 239.407C181.698 235.122 185.915 231.616 190.979 229.253C196.143 226.865 201.8 225.736 207.485 225.959C227.018 225.959 241.707 240.068 241.707 261.062C241.707 285.854 224.058 298.159 204.97 298.159C200.129 298.355 195.306 297.456 190.861 295.53C186.512 293.624 182.79 290.783 180.076 287.273V325.12H165.607V250.095ZM180.076 268.536C180.11 270.255 180.342 271.974 180.741 273.646C181.981 277.847 184.806 281.569 188.777 284.232C192.749 286.896 197.644 288.319 202.67 288.319C218.139 288.319 227.234 277.436 227.234 261.642C227.234 247.825 218.681 235.999 203.217 235.999C197.098 236.431 191.373 238.764 187.109 242.583C182.858 246.403 180.343 251.416 180.08 256.709L180.076 268.536ZM267.892 227.513L285.558 268.29C287.435 272.926 289.15 277.626 290.699 282.382C292.24 278.228 293.875 272.918 295.865 268.006L311.871 227.513H327.339L305.405 276.708C294.438 300.361 287.739 312.565 277.648 319.941C272.571 323.964 266.368 326.758 259.669 328.079L256.049 317.493C260.651 316.2 264.993 314.119 268.883 311.341C274.227 307.572 278.478 302.775 281.273 297.334C281.863 296.41 282.272 295.382 282.48 294.306C282.345 293.154 282.01 292.035 281.489 290.999L251.666 227.314H267.672L267.892 227.513ZM366.342 207.666V227.53H387.395V236.994H366.342V274.273C366.342 282.793 369.2 287.705 377.309 287.705C380.182 287.743 383.05 287.455 385.858 286.845L386.518 296.322C382.285 297.572 377.88 298.142 373.468 298.011C370.55 298.173 367.626 297.786 364.851 296.868C362.169 295.992 359.693 294.58 357.572 292.718C353.109 287.556 351.072 281.141 351.869 274.739V236.892H339.364V227.433H352.08V210.592L366.342 207.666ZM414.474 264.301C414.177 267.511 414.686 270.737 415.977 273.744C417.322 276.845 419.36 279.596 421.935 281.785C424.581 284.067 427.757 285.82 431.263 286.93C434.752 288.052 438.504 288.484 442.213 288.234C449.684 288.395 457.121 287.174 464.147 284.63L466.675 294.09C458.055 297.135 448.952 298.581 439.812 298.358C434.435 298.672 429.061 297.977 424.035 296.338C419.124 294.753 414.584 292.194 410.684 288.814C406.915 285.507 404.002 281.535 402.181 277.169C400.37 272.868 399.655 268.185 400.098 263.539C400.098 242.714 414.474 226.26 437.945 226.26C464.262 226.26 470.846 246.123 470.846 258.809C470.973 260.761 470.973 262.713 470.846 264.665H414.139L414.474 264.301ZM457.461 254.842C457.889 252.304 457.679 249.699 456.851 247.262C455.98 244.752 454.541 242.477 452.647 240.614C450.648 238.627 448.261 237.073 445.635 236.049C442.908 234.968 440.002 234.407 437.068 234.398C431.047 234.779 425.39 237.074 421.236 240.864C417.069 244.633 414.702 249.612 414.588 254.837L457.461 254.842ZM493.136 249.019C493.136 240.898 493.136 233.881 492.479 227.449H505.648V240.978H506.305C507.681 236.812 510.539 233.102 514.46 230.392C518.398 227.682 523.213 226.094 528.239 225.845C529.611 225.696 531.017 225.696 532.405 225.845V237.671C530.728 237.506 529.039 237.506 527.362 237.671C522.383 237.836 517.636 239.556 514.032 242.515C510.408 245.479 508.176 249.481 507.727 253.749C507.317 255.697 507.101 257.653 507.067 259.618V296.423H492.594V249.117L493.136 249.019Z" fill="#4E4E4E"/>
<path d="M464.79 30.8305C465.058 37.1958 463.453 43.4998 460.174 48.9621C456.905 54.3975 452.098 58.7426 446.362 61.4493C440.635 64.1377 434.235 65.052 427.985 64.0746C421.724 63.0989 415.896 60.2786 411.246 55.9743C406.576 51.6437 403.289 46.0316 401.794 39.8408C400.3 33.65 400.665 27.1559 402.845 21.1719C405.001 15.1997 408.874 9.99793 413.977 6.22036C419.069 2.46107 425.167 0.307006 431.491 0.033936C435.686 -0.142855 439.875 0.51299 443.815 1.96362C447.756 3.41425 451.37 5.63094 454.449 8.48575C460.701 14.2751 464.412 22.3006 464.773 30.8136L464.79 30.8305Z" fill="#767677"/>
<path d="M278.444 409.845C193.342 409.845 119.024 378.663 80.4193 332.496C94.7343 373.832 121.514 409.713 157.07 435.196C192.477 460.564 234.938 474.209 278.495 474.216C322.049 474.2 364.506 460.556 399.916 435.196C435.466 409.715 462.235 373.832 476.532 332.496C437.86 378.663 363.542 409.845 278.444 409.845ZM278.41 109.598C363.513 109.598 437.843 140.793 476.435 186.939C462.119 145.604 435.34 109.725 399.784 84.2429C364.382 58.8759 321.929 45.2243 278.376 45.202C234.824 45.2243 192.371 58.8759 156.968 84.2429C121.408 109.718 94.6294 145.6 80.3262 186.939C118.994 140.878 193.308 109.598 278.41 109.598Z" fill="#F37726"/>
<path d="M161.602 499.588C161.951 507.613 159.932 515.564 155.796 522.45C151.687 529.302 145.63 534.776 138.398 538.172C131.166 541.569 123.086 542.735 115.189 541.521C107.292 540.301 99.9441 536.734 94.1014 531.283C88.2342 525.822 84.0986 518.759 82.2071 510.97C80.3398 503.152 80.8005 494.958 83.5324 487.398C86.2727 479.863 91.1746 473.304 97.6244 468.542C105.137 463.022 114.338 460.292 123.646 460.824C132.953 461.356 141.784 465.115 148.619 471.455C156.484 478.764 161.149 488.879 161.602 499.605V499.588Z" fill="#9E9E9E"/>
<path d="M90.1281 99.1606C85.4503 99.364 80.819 98.1605 76.8322 95.7053C72.8183 93.2451 69.6233 89.6508 67.6503 85.3763C65.6773 81.1018 65.0149 76.3386 65.7466 71.688C66.4492 67.0253 68.5231 62.6771 71.7043 59.1966C74.8573 55.7315 78.9672 53.2795 83.514 52.1506C88.0577 51.0156 92.839 51.2873 97.2249 52.9297C101.627 54.5513 105.441 57.4555 108.175 61.2672C111.404 65.7273 112.999 71.1631 112.691 76.6606C112.383 82.1582 110.192 87.3821 106.485 91.454C104.4 93.7557 101.879 95.6218 99.0688 96.9445C96.2585 98.2671 93.2141 99.0203 90.1112 99.1606H90.1281Z" fill="#616262"/>
</svg>
