<svg width="542" height="541" viewBox="0 0 542 541" fill="none" xmlns="http://www.w3.org/2000/svg">
<path fill-rule="evenodd" clip-rule="evenodd" d="M22.9927 283.429C22.9927 299.837 21.354 305.187 17.1196 309.118C12.4364 312.499 6.33463 314.367 0 314.367L1.6387 323.746C11.4455 323.843 20.9559 321.071 28.4 315.969C32.3845 312.056 35.3655 307.567 37.1355 302.728C38.8937 297.972 39.4322 292.853 38.7022 287.837V225.775H22.9927V283.429ZM133.764 274.262C133.764 281.066 133.764 287.127 134.408 292.394H121.196L120.299 281.595C117.521 285.424 113.566 288.577 108.823 290.724C103.946 292.925 98.6397 294.019 93.2875 293.928C80.3854 293.928 65.0358 288.214 65.0358 264.934V226.235H79.9408V262.478C79.9408 275.073 84.7383 283.492 98.1698 283.492C100.915 283.526 103.648 283.108 106.257 282.254C108.744 281.434 111.063 280.175 113.104 278.539C114.999 277.026 116.544 275.123 117.635 272.96C118.694 270.88 119.223 268.649 119.189 266.371V225.775H134.077V273.902L133.764 274.262ZM165.437 246.409C165.437 237.347 165.437 229.917 164.76 223.217H178.157L178.818 235.398C181.799 230.973 186.101 227.376 191.241 224.933C196.483 222.471 202.242 221.304 208.031 221.531C227.877 221.531 242.816 236.075 242.816 257.723C242.816 283.277 224.866 295.957 205.469 295.957C200.544 296.159 195.638 295.234 191.127 293.252C186.817 291.375 183.047 288.452 180.16 284.748V323.746H165.437V246.409ZM180.16 265.415C180.194 267.199 180.422 268.966 180.821 270.699C182.091 275.022 184.97 278.856 189.01 281.595C193.045 284.35 198.025 285.821 203.136 285.821C218.845 285.821 228.093 274.596 228.093 258.315C228.093 244.084 219.413 231.882 203.682 231.882C197.457 232.33 191.639 234.739 187.303 238.67C182.984 242.613 180.422 247.782 180.16 253.23V265.415ZM268.222 225.952L286.447 265.614C288.352 270.039 290.402 275.352 291.74 279.317C293.328 275.272 295.034 270.12 297.067 265.331L313.594 225.956H329.536L306.908 273.797C295.597 296.781 288.7 308.666 278.296 315.834C273.049 319.744 266.651 322.453 259.737 323.738L256.01 313.455C260.727 312.21 265.202 310.184 269.247 307.461C274.752 303.797 279.138 299.139 282.035 293.839C282.645 292.935 283.076 291.924 283.271 290.902C283.122 289.776 282.775 288.686 282.246 287.681L251.484 225.77H268.006L268.222 225.952ZM369.335 204.477V224.139H390.24V233.501H369.335V270.399C369.335 278.839 372.18 283.691 380.217 283.691C383.075 283.73 385.928 283.442 388.72 282.833L389.363 292.229C385.162 293.462 380.792 294.024 376.415 293.894C373.517 294.058 370.614 293.67 367.861 292.753C365.198 291.896 362.738 290.503 360.633 288.661C356.2 283.543 354.167 277.186 354.959 270.863V233.403H342.54V224.042H355.175V207.364L369.335 204.477ZM418.314 259.684C417.996 262.905 418.526 266.142 419.864 269.164C421.219 272.199 423.323 274.955 426.067 277.22C428.815 279.515 432.105 281.278 435.743 282.385C439.424 283.516 443.282 283.96 447.125 283.695C454.933 283.839 462.707 282.618 469.901 280.077L472.527 289.57C463.551 292.631 454.104 294.083 444.622 293.86C439.082 294.169 433.532 293.482 428.235 291.831C423.027 290.183 418.293 287.605 414.372 284.287C410.455 280.969 407.444 276.975 405.539 272.596C403.662 268.299 402.923 263.592 403.392 258.928C403.392 238.023 418.31 221.514 442.687 221.514C470.016 221.514 476.863 241.442 476.863 254.173C476.994 256.138 476.994 258.082 476.863 260.048H417.962L418.314 259.684ZM462.953 250.191C463.398 247.644 463.182 245.024 462.326 242.584C461.403 240.053 459.908 237.769 457.956 235.91C455.864 233.913 453.39 232.358 450.681 231.337C447.84 230.25 444.824 229.686 441.781 229.671C435.527 230.052 429.658 232.364 425.339 236.159C421.007 239.955 418.543 244.942 418.424 250.191H462.953ZM499.292 245.373C499.292 237.047 499.292 229.87 498.648 223.268H511.517V237.131H512.143C513.498 232.858 516.293 229.059 520.117 226.286C524.068 223.471 528.75 221.854 533.599 221.628C534.937 221.463 536.309 221.463 537.664 221.628V233.75C536.027 233.569 534.376 233.569 532.739 233.75C527.874 233.915 523.225 235.665 519.702 238.704C516.162 241.738 513.981 245.834 513.549 250.208C513.149 252.188 512.928 254.199 512.889 256.218V293.928H498.746V245.47L499.292 245.373ZM464.79 30.7736C465.059 37.1271 463.454 43.4195 460.175 48.8717C456.905 54.297 452.099 58.6341 446.362 61.3359C440.636 64.0193 434.236 64.9319 427.985 63.9563C421.724 62.9824 415.897 60.1673 411.247 55.8709C406.577 51.5484 403.289 45.9466 401.795 39.7672C400.3 33.5878 400.666 27.1057 402.846 21.1328C405.002 15.1716 408.874 9.97943 413.978 6.20883C419.07 2.45648 425.168 0.306389 431.491 0.0338229C435.687 -0.142642 439.875 0.511993 443.816 1.95995C447.757 3.4079 451.371 5.6205 454.45 8.47004C460.702 14.2487 464.413 22.2594 464.773 30.7567L464.79 30.7736ZM278.444 409.089C193.342 409.089 119.024 377.965 80.4193 331.882C94.7342 373.142 121.514 408.957 157.07 434.393C192.477 459.714 234.938 473.334 278.495 473.341C322.049 473.325 364.506 459.706 399.916 434.393C435.465 408.959 462.235 373.142 476.532 331.882C437.86 377.965 363.542 409.089 278.444 409.089ZM278.41 109.396C363.513 109.396 437.843 140.533 476.435 186.594C462.119 145.336 435.34 109.522 399.784 84.0875C364.382 58.7673 321.929 45.1408 278.376 45.1186C234.824 45.1408 192.371 58.7673 156.968 84.0875C121.408 109.516 94.6293 145.331 80.3261 186.594C118.994 140.618 193.308 109.396 278.41 109.396ZM161.601 498.667C161.95 506.677 159.931 514.612 155.795 521.486C151.686 528.326 145.629 533.789 138.397 537.179C131.165 540.57 123.085 541.733 115.188 540.522C107.291 539.305 99.9432 535.744 94.1005 530.303C88.2333 524.852 84.0976 517.802 82.2062 510.028C80.3389 502.223 80.7996 494.045 83.5315 486.498C86.2718 478.978 91.1736 472.431 97.6235 467.678C105.136 462.167 114.338 459.443 123.645 459.974C132.952 460.505 141.783 464.257 148.618 470.585C156.483 477.88 161.148 487.977 161.601 498.684V498.667ZM90.1287 98.9776C85.4509 99.1807 80.8196 97.9794 76.8327 95.5288C72.8189 93.073 69.6239 89.4854 67.6509 85.2188C65.6779 80.9522 65.0155 76.1978 65.7471 71.5557C66.4498 66.9016 68.5236 62.5614 71.7049 59.0873C74.8579 55.6287 78.9678 53.1812 83.5146 52.0543C88.0583 50.9215 92.8396 51.1926 97.2255 52.832C101.627 54.4507 105.441 57.3495 108.176 61.1541C111.404 65.606 112.999 71.0318 112.691 76.5192C112.384 82.0066 110.192 87.2209 106.486 91.2853C104.4 93.5828 101.88 95.4453 99.0694 96.7656C96.2591 98.0858 93.2146 98.8376 90.1117 98.9776H90.1287Z" fill="#626262"/>
</svg>
