<svg width="539" height="539" viewBox="0 0 539 539" fill="none" xmlns="http://www.w3.org/2000/svg">
<g clip-path="url(#clip0_103_256)">
<path d="M499.101 0H39.7934C17.7912 0 0 17.3701 0 38.8459V500.049C0 521.525 17.7912 539 39.7934 539H499.101C521.104 539 539 521.525 539 500.154V38.8459C539 17.3701 521.104 0 499.101 0ZM159.91 459.308H79.9025V202.02H159.91V459.308ZM119.906 166.964C94.2197 166.964 73.4809 146.225 73.4809 120.643C73.4809 95.0619 94.2197 74.323 119.906 74.323C145.488 74.323 166.227 95.0619 166.227 120.643C166.227 146.12 145.488 166.964 119.906 166.964ZM459.308 459.308H379.405V334.243C379.405 304.451 378.879 266.026 337.822 266.026C296.239 266.026 289.923 298.555 289.923 332.138V459.308H210.126V202.02H286.765V237.181H287.818C298.45 216.969 324.558 195.598 363.404 195.598C444.359 195.598 459.308 248.866 459.308 318.136V459.308V459.308Z" fill="white"/>
</g>
<defs>
<clipPath id="clip0_103_256">
<rect width="539" height="539" fill="white"/>
</clipPath>
</defs>
</svg>
