<svg width="539" height="539" viewBox="0 0 539 539" fill="none" xmlns="http://www.w3.org/2000/svg">
<path d="M499.211 0H39.7887C29.2361 0 19.1157 4.19202 11.6538 11.6538C4.19202 19.1157 0 29.2361 0 39.7887V499.211C0 509.764 4.19202 519.884 11.6538 527.346C19.1157 534.808 29.2361 539 39.7887 539H499.211C509.764 539 519.884 534.808 527.346 527.346C534.808 519.884 539 509.764 539 499.211V39.7887C539 29.2361 534.808 19.1157 527.346 11.6538C519.884 4.19202 509.764 0 499.211 0ZM160.652 459.161H79.6148V201.751H160.652V459.161ZM120.077 166.079C110.885 166.028 101.914 163.254 94.2966 158.109C86.6791 152.963 80.7566 145.677 77.2764 137.169C73.7962 128.66 72.9143 119.312 74.742 110.303C76.5698 101.294 81.0252 93.0286 87.5461 86.5495C94.0669 80.0704 102.361 75.6681 111.381 73.8983C120.402 72.1284 129.744 73.0703 138.23 76.6051C146.716 80.1398 153.964 86.109 159.06 93.7593C164.157 101.41 166.873 110.398 166.865 119.591C166.952 125.745 165.799 131.854 163.474 137.553C161.15 143.252 157.702 148.425 153.336 152.763C148.97 157.101 143.775 160.516 138.061 162.804C132.347 165.092 126.231 166.206 120.077 166.079ZM459.348 459.385H378.348V318.759C378.348 277.286 360.718 264.484 337.961 264.484C313.93 264.484 290.349 282.601 290.349 319.807V459.385H209.312V201.938H287.242V237.609H288.29C296.113 221.776 323.512 194.714 365.322 194.714C410.538 194.714 459.385 221.551 459.385 300.156L459.348 459.385Z" fill="#626262"/>
</svg>
