<svg width="541" height="542" viewBox="0 0 541 542" fill="none" xmlns="http://www.w3.org/2000/svg">
<path d="M209.168 262.612H332.41C366.717 262.612 393.742 233.53 393.742 199.016V81.3085C393.742 47.8062 365.711 22.637 332.224 17.0477C311.032 13.512 289.135 11.9029 268.036 12.0045C246.945 12.1019 227.41 13.9015 209.688 17.0477C157.469 26.2828 148.601 45.6339 148.601 81.3085V127.112H271.172V144.049H101.162C65.3043 144.049 33.9008 165.678 24.0825 206.765C12.7511 253.851 12.2482 282.64 24.0825 331.806C32.8526 368.399 53.7954 393.877 89.6577 393.877H131.695V338.627C131.695 297.821 167.317 262.612 209.168 262.612ZM201.4 97.0054C188.61 97.0054 178.246 86.5083 178.246 73.5257C178.246 60.4881 188.606 49.8937 201.4 49.8937C214.143 49.8937 224.557 60.4881 224.557 73.5257C224.553 86.5083 214.138 97.0054 201.4 97.0054ZM517.5 206.765C508.633 170.993 491.705 144.049 455.796 144.049H410.648V199.016C410.648 241.571 373.48 275.315 332.41 275.315H209.168C175.406 275.315 148.601 306.336 148.601 340.211V457.926C148.601 491.42 177.11 511.127 209.726 520.739C248.788 532.244 285.779 534.323 332.512 520.739C363.573 511.724 393.742 493.593 393.742 457.926V410.815H271.172V393.877H455.796C491.655 393.877 505.023 369.42 517.5 331.801C530.378 293.078 529.825 256.434 517.5 206.765ZM340.175 442.221C352.968 442.221 363.332 452.718 363.332 465.709C363.332 478.734 352.973 489.333 340.175 489.333C327.432 489.333 317.021 478.738 317.021 465.709C317.021 452.718 327.432 442.221 340.175 442.221Z" fill="#FFD845"/>
<path d="M208.774 262.851H332.016C366.323 262.851 393.348 233.769 393.348 199.255V81.5477C393.348 48.0454 365.317 22.8762 331.83 17.2869C310.638 13.7512 288.74 12.1421 267.641 12.2437C246.551 12.3411 227.015 14.1407 209.293 17.2869C157.074 26.522 148.207 45.8731 148.207 81.5477V127.351H270.777V144.288H100.768C64.9099 144.288 33.5065 165.918 23.6882 207.004C12.3568 254.09 11.8538 282.88 23.6882 332.045C32.4583 368.638 53.401 394.117 89.2633 394.117H131.301V338.866C131.301 298.06 166.922 262.851 208.774 262.851ZM201.005 97.2446C188.216 97.2446 177.852 86.7475 177.852 73.7649C177.852 60.7273 188.211 50.1329 201.005 50.1329C213.748 50.1329 224.163 60.7273 224.163 73.7649C224.158 86.7475 213.744 97.2446 201.005 97.2446ZM326.605 87.4446C317.738 51.6726 333.409 50.1329 297.5 50.1329L316.627 105.739L305 135.239C305 177.795 338.569 187.739 297.5 187.739H183.5C149.738 187.739 148.207 196.864 148.207 230.739L70.1761 167.926C70.1761 201.42 98.6844 221.127 131.301 230.739C170.363 242.244 132.537 264.136 179.27 250.552C210.331 241.537 240.5 223.405 240.5 187.739H331.864H209.293L112.875 207.004H297.5C333.358 207.004 314.129 250.1 326.605 212.481C339.484 173.758 338.93 137.114 326.605 87.4446ZM70.1761 274.744C82.9699 274.744 55.3477 237.561 55.3477 250.552C55.3477 263.577 56.4582 222.244 43.6602 222.244C30.9171 222.244 64.6602 335.773 64.6602 322.744C64.6602 309.753 57.4331 274.744 70.1761 274.744Z" fill="#0074BD"/>
</svg>
