<svg width="541" height="542" viewBox="0 0 541 542" fill="none" xmlns="http://www.w3.org/2000/svg">
<path d="M208.496 262.531H331.739C366.046 262.531 393.07 233.45 393.07 198.935V81.228C393.07 47.7256 365.04 22.5565 331.553 16.9671C310.361 13.4314 288.463 11.8224 267.364 11.924C246.273 12.0214 226.738 13.821 209.016 16.9671C156.797 26.2023 147.93 45.5534 147.93 81.228V127.031H270.5V143.969H100.491C64.6325 143.969 33.2292 165.598 23.4109 206.684C12.0794 253.77 11.5765 282.56 23.4109 331.725C32.181 368.319 53.1236 393.797 88.986 393.797H131.023V338.547C131.023 297.74 166.645 262.531 208.496 262.531ZM200.728 96.9248C187.938 96.9248 177.575 86.4278 177.575 73.4452C177.575 60.4076 187.934 49.8132 200.728 49.8132C213.471 49.8132 223.885 60.4076 223.885 73.4452C223.881 86.4278 213.467 96.9248 200.728 96.9248ZM516.828 206.684C507.961 170.912 491.033 143.969 455.125 143.969H409.976V198.935C409.976 241.491 372.808 275.234 331.739 275.234H208.496C174.734 275.234 147.93 306.255 147.93 340.13V457.846C147.93 491.34 176.438 511.047 209.054 520.659C248.116 532.163 285.107 534.243 331.84 520.659C362.901 511.644 393.07 493.512 393.07 457.846V410.734H270.5V393.797H455.125C490.983 393.797 504.351 369.339 516.828 331.721C529.707 292.998 529.153 256.353 516.828 206.684V206.684ZM339.503 442.141C352.297 442.141 362.66 452.638 362.66 465.629C362.66 478.654 352.301 489.252 339.503 489.252C326.76 489.252 316.35 478.658 316.35 465.629C316.35 452.638 326.76 442.141 339.503 442.141Z" fill="#626262"/>
</svg>
